# This file uses centimeters as units for non-parametric coordinates.

mtllib Grass_04_v01a.mtl
v -0.328461 0.000000 0.487360
v -0.302551 0.862088 0.477511
v 0.328461 0.000000 0.487360
v 0.346870 0.828496 0.480164
v 0.395363 2.366947 -0.762310
v 0.835272 1.896880 -0.680042
v -0.067198 1.836085 0.388151
v 0.517556 2.632195 0.165762
v 0.516082 1.572408 0.415715
v 0.957466 2.162127 0.248030
v 0.475051 1.423499 -0.543204
v 0.342952 0.809519 -0.492885
v -0.108219 1.687175 -0.570763
v -0.306432 0.843112 -0.495534
v 0.328461 0.000000 -0.487360
v -0.328461 0.000000 -0.487360
v 1.170671 3.139116 -0.085979
v 1.566531 2.637777 0.009055
v 1.028890 2.854748 -0.995690
v 1.424743 2.353410 -0.900674
v -0.328461 0.419548 0.487348
v 0.697352 2.621732 -0.877212
v -0.224822 1.350615 0.448025
v 0.198398 2.269457 0.287148
v 0.402675 1.216245 0.458868
v 0.707411 1.886599 0.343011
v 0.624370 1.670484 -0.599928
v 0.386534 1.140340 -0.509513
v 0.115360 2.053341 -0.655788
v -0.240937 1.274709 -0.520350
v 0.835867 2.905763 0.044738
v 1.247055 2.402300 0.138043
v 1.108539 2.118269 -0.783906
v 0.328345 0.419548 0.487302
v 0.328439 0.419548 -0.487350
v -0.328342 0.419548 -0.487301
vt 0.376309 0.217400
vt 0.375736 0.187162
vt 0.624262 0.187158
vt 0.623693 0.217380
vt 0.125000 0.217913
vt 0.375000 0.250000
vt 0.125000 0.250000
vt 0.875000 0.187500
vt 0.875000 0.217890
vt 0.625000 0.250000
vt 0.625000 0.500000
vt 0.375000 0.500000
vt 0.375000 0.532087
vt 0.625000 0.532110
vt 0.625000 0.562500
vt 0.375000 0.562500
vt 0.875000 0.250000
vt 0.624456 0.031250
vt 0.625000 0.000000
vt 0.875000 0.000000
vt 0.875000 0.031250
vt 0.624445 0.062500
vt 0.875000 0.062500
vt 0.375000 0.718750
vt 0.750000 0.343750
vt 0.375000 0.750000
vt 0.250000 0.406250
vt 0.375000 0.000000
vt 0.375533 0.031250
vt 0.375000 0.687500
vt 0.625000 0.687500
vt 0.375536 0.062500
vt 0.125000 0.062500
vt 0.125000 0.187500
vt 0.375550 0.093750
vt 0.375560 0.125000
vt 0.125000 0.125000
vt 0.125000 0.093750
vt 0.624433 0.093750
vt 0.375554 0.156250
vt 0.125000 0.156250
vt 0.624428 0.125000
vt 0.624439 0.156250
vt 0.875000 0.093750
vt 0.875000 0.156250
vt 0.875000 0.125000
vt 0.375000 0.593750
vt 0.625000 0.593750
vt 0.625000 0.625000
vt 0.375000 0.625000
vt 0.375000 0.656250
vt 0.625000 0.656250
vn 0.141018 0.291624 0.946081
vn 0.105238 0.266068 0.958193
vn 0.103926 0.265081 0.958609
vn 0.140611 0.291351 0.946226
vn -0.638042 0.757779 -0.136653
vn -0.637697 0.758043 -0.136797
vn -0.604024 0.782639 -0.150435
vn -0.604024 0.782639 -0.150435
vn 0.640215 -0.756115 0.135703
vn 0.702320 -0.703523 0.108637
vn 0.703175 -0.702728 0.108256
vn 0.640322 -0.756032 0.135655
vn 0.156736 0.302135 0.940292
vn 0.156736 0.302135 0.940292
vn 0.776294 0.557026 -0.295109
vn 0.776294 0.557026 -0.295109
vn 0.776294 0.557026 -0.295109
vn 0.776294 0.557026 -0.295109
vn -0.132195 -0.285213 -0.949304
vn -0.132107 -0.285169 -0.949329
vn -0.107596 -0.268273 -0.957315
vn -0.108684 -0.269076 -0.956967
vn 0.624006 -0.768242 0.142905
vn 0.624006 -0.768242 0.142905
vn 0.999800 -0.019969 -0.000731
vn 1.000000 0.000164 0.000048
vn 1.000000 0.000164 0.000048
vn 0.999796 -0.020179 -0.000740
vn 0.996247 -0.086520 -0.002489
vn 0.996171 -0.087386 -0.002507
vn 0.000731 -0.008160 -0.999966
vn 0.000753 -0.008403 -0.999964
vn -0.000037 0.000083 -1.000000
vn -0.000037 0.000083 -1.000000
vn -0.999600 0.028276 0.000682
vn -1.000000 0.000141 -0.000061
vn -1.000000 0.000141 -0.000061
vn -0.999610 0.027912 0.000672
vn 0.002389 -0.034621 -0.999398
vn 0.002436 -0.035607 -0.999363
vn -0.994390 0.105757 0.002038
vn -0.994257 0.106996 0.002054
vn -0.000712 0.009909 0.999951
vn 0.000035 0.000082 1.000000
vn 0.000035 0.000082 1.000000
vn -0.000737 0.010239 0.999947
vn -0.002209 0.039906 0.999201
vn -0.002165 0.038700 0.999249
vn -0.719030 0.687480 -0.101813
vn -0.717850 0.688634 -0.102347
vn -0.136592 -0.287389 -0.948024
vn -0.136592 -0.287389 -0.948024
vn -0.972871 0.231335 -0.002484
vn -0.910137 0.413528 -0.025407
vn -0.910166 0.413465 -0.025396
vn -0.972695 0.232073 -0.002534
vn 0.002286 0.088145 0.996105
vn 0.002408 0.088853 0.996042
vn -0.811241 0.581325 -0.062840
vn -0.811858 0.580491 -0.062586
vn 0.064954 0.226292 0.971891
vn 0.025842 0.160002 0.986778
vn 0.025792 0.159889 0.986798
vn 0.064275 0.225463 0.972129
vn 0.976259 -0.216603 0.001428
vn 0.976337 -0.216250 0.001406
vn 0.805898 -0.588440 0.065322
vn 0.805356 -0.589157 0.065543
vn 0.912504 -0.408330 0.024555
vn 0.912649 -0.408010 0.024502
vn -0.066370 -0.227733 -0.971459
vn -0.065744 -0.226972 -0.971680
vn -0.025246 -0.158611 -0.987018
vn -0.025368 -0.158886 -0.986971
vn -0.001722 -0.084995 -0.996380
vn -0.001801 -0.085464 -0.996340
s 1
g Grass_04_Geo
usemtl initialShadingGroup
f 31/1/1 8/2/2 10/3/3 32/4/4
s 2
f 22/5/5 31/1/6 17/6/7 19/7/8
s 3
f 32/4/9 10/3/10 6/8/11 33/9/12
s 1
f 31/1/1 32/4/4 18/10/13 17/6/14
s off
f 20/11/15 19/12/16 17/6/17 18/10/18
s 4
f 22/13/19 33/14/20 6/15/21 5/16/22
s 3
f 32/4/9 33/9/12 20/17/23 18/10/24
f 34/18/25 3/19/26 15/20/27 35/21/28
f 4/22/29 34/18/25 35/21/28 12/23/30
s 4
f 36/24/31 35/25/32 15/20/33 16/26/34
s 2
f 36/27/35 16/26/36 1/28/37 21/29/38
s 4
f 36/24/31 14/30/39 12/31/40 35/25/32
s 2
f 36/27/35 21/29/38 2/32/41 14/33/42
s 1
f 21/29/43 1/28/44 3/19/45 34/18/46
f 21/29/43 34/18/46 4/22/47 2/32/48
s 2
f 31/1/6 22/5/5 5/34/49 8/2/50
s 4
f 33/14/20 22/13/19 19/12/51 20/11/52
s 2
f 23/35/53 7/36/54 13/37/55 30/38/56
s 1
f 23/35/57 2/32/48 4/22/47 25/39/58
s 2
f 24/40/59 8/2/50 5/34/49 29/41/60
s 1
f 24/40/61 7/36/62 9/42/63 26/43/64
f 23/35/57 25/39/58 9/42/63 7/36/62
s 3
f 28/44/65 25/39/66 4/22/29 12/23/30
s 1
f 24/40/61 26/43/64 10/3/3 8/2/2
s 3
f 27/45/67 26/43/68 9/42/69 11/46/70
s 4
f 29/47/71 27/48/72 11/49/73 13/50/74
s 3
f 27/45/67 6/8/11 10/3/10 26/43/68
s 4
f 30/51/75 28/52/76 12/31/40 14/30/39
s 3
f 28/44/65 11/46/70 9/42/69 25/39/66
s 2
f 24/40/59 29/41/60 13/37/55 7/36/54
s 4
f 29/47/71 5/16/22 6/15/21 27/48/72
s 2
f 23/35/53 30/38/56 14/33/42 2/32/41
s 4
f 30/51/75 13/50/74 11/49/73 28/52/76
