# This file uses centimeters as units for non-parametric coordinates.

mtllib Fish_01_v01a.mtl
v 0.348382 1.031890 -5.089244
v -0.000000 1.459312 -5.089244
v -0.348382 1.031890 -5.089244
v -0.492686 0.000000 -5.089244
v -0.348382 -1.031890 -5.089244
v -0.000000 -1.459312 -5.089244
v 0.348382 -1.031890 -5.089244
v 0.492686 0.000000 -5.089244
v 0.643725 1.442966 -3.731485
v -0.000000 2.040662 -3.731485
v -0.643726 1.442966 -3.731485
v -0.910365 -0.000000 -3.731485
v -0.643726 -1.442966 -3.731485
v -0.000000 -2.040662 -3.731485
v 0.643725 -1.442966 -3.731485
v 0.910365 -0.000000 -3.731485
v 0.841068 1.885325 -1.699454
v -0.000000 2.666252 -1.699454
v -0.841068 1.885325 -1.699454
v -1.189449 -0.000000 -1.699454
v -0.841068 -1.885325 -1.699454
v -0.000000 -2.666253 -1.699454
v 0.841068 -1.885326 -1.699454
v 1.189449 -0.000000 -1.699454
v 0.910365 2.040662 0.697491
v -0.000000 2.885931 0.697491
v -0.910365 2.040662 0.697491
v -1.287451 -0.000000 0.697491
v -0.910365 -2.040662 0.697491
v -0.000000 -2.885931 0.697491
v 0.910365 -2.040662 0.697491
v 1.287451 -0.000000 0.697491
v 0.841068 1.885325 3.094435
v -0.000000 2.666252 3.094435
v -0.841068 1.885325 3.094435
v -1.189449 -0.000000 3.094435
v -0.841068 -1.885325 3.094435
v -0.000000 -2.666253 3.094435
v 0.841068 -1.885326 3.094435
v 1.189449 -0.000000 3.094435
v 0.643725 1.442966 5.126467
v -0.000000 2.040662 5.126467
v -0.643726 1.442966 5.126467
v -0.910365 -0.000000 5.126467
v -0.643726 -1.442966 5.126467
v -0.000000 -2.040662 5.126467
v 0.643725 -1.442966 5.126467
v 0.910365 -0.000000 5.126467
v 0.348382 0.780927 6.484226
v -0.000000 1.104398 6.484226
v -0.348382 0.780927 6.484226
v -0.492686 -0.000000 6.484226
v -0.348382 -0.780927 6.484226
v -0.000000 -1.104398 6.484226
v 0.348382 -0.780927 6.484226
v 0.492686 -0.000000 6.484226
v -0.000000 -0.000000 6.961008
v 0.858413 2.232167 -6.961008
v -0.000000 3.156759 -6.961008
v -0.000000 0.000000 -6.961008
v -0.858413 2.232167 -6.961008
v -1.213979 0.000000 -6.961008
v -0.858413 -2.232167 -6.961008
v -0.000000 -3.156759 -6.961008
v 0.858413 -2.232167 -6.961008
v 1.213978 0.000000 -6.961008
vt 0.000000 0.125000
vt 0.125000 0.125000
vt 0.250000 0.125000
vt 0.375000 0.125000
vt 0.500000 0.125000
vt 0.625000 0.125000
vt 0.750000 0.125000
vt 0.875000 0.125000
vt 1.000000 0.125000
vt 0.000000 0.250000
vt 0.125000 0.250000
vt 0.250000 0.250000
vt 0.375000 0.250000
vt 0.500000 0.250000
vt 0.625000 0.250000
vt 0.750000 0.250000
vt 0.875000 0.250000
vt 1.000000 0.250000
vt 0.000000 0.375000
vt 0.125000 0.375000
vt 0.250000 0.375000
vt 0.375000 0.375000
vt 0.500000 0.375000
vt 0.625000 0.375000
vt 0.750000 0.375000
vt 0.875000 0.375000
vt 1.000000 0.375000
vt 0.000000 0.500000
vt 0.125000 0.500000
vt 0.250000 0.500000
vt 0.375000 0.500000
vt 0.500000 0.500000
vt 0.625000 0.500000
vt 0.750000 0.500000
vt 0.875000 0.500000
vt 1.000000 0.500000
vt 0.000000 0.625000
vt 0.125000 0.625000
vt 0.250000 0.625000
vt 0.375000 0.625000
vt 0.500000 0.625000
vt 0.625000 0.625000
vt 0.750000 0.625000
vt 0.875000 0.625000
vt 1.000000 0.625000
vt 0.000000 0.750000
vt 0.125000 0.750000
vt 0.250000 0.750000
vt 0.375000 0.750000
vt 0.500000 0.750000
vt 0.625000 0.750000
vt 0.750000 0.750000
vt 0.875000 0.750000
vt 1.000000 0.750000
vt 0.000000 0.875000
vt 0.125000 0.875000
vt 0.250000 0.875000
vt 0.375000 0.875000
vt 0.500000 0.875000
vt 0.625000 0.875000
vt 0.750000 0.875000
vt 0.875000 0.875000
vt 1.000000 0.875000
vt 0.062500 0.000000
vt 0.187500 0.000000
vt 0.312500 0.000000
vt 0.437500 0.000000
vt 0.562500 0.000000
vt 0.687500 0.000000
vt 0.812500 0.000000
vt 0.937500 0.000000
vt 0.062500 1.000000
vt 0.187500 1.000000
vt 0.312500 1.000000
vt 0.437500 1.000000
vt 0.562500 1.000000
vt 0.687500 1.000000
vt 0.812500 1.000000
vt 0.937500 1.000000
vt 0.125000 0.125000
vt 0.000000 0.125000
vt 0.250000 0.125000
vt 0.375000 0.125000
vt 0.500000 0.125000
vt 0.625000 0.125000
vt 0.750000 0.125000
vt 0.875000 0.125000
vt 1.000000 0.125000
vn 0.919092 0.341680 0.196279
vn 0.000000 0.920430 0.390907
vn -0.000000 0.943496 -0.331385
vn 0.900681 0.380749 -0.209293
vn -0.919092 0.341680 0.196279
vn -0.900681 0.380749 -0.209292
vn -0.989853 0.000000 0.142093
vn -0.984529 -0.000000 -0.175223
vn -0.919092 -0.341680 0.196279
vn -0.900681 -0.380749 -0.209292
vn -0.000000 -0.920430 0.390907
vn -0.000000 -0.943496 -0.331385
vn 0.919092 -0.341680 0.196279
vn 0.900681 -0.380749 -0.209293
vn 0.989853 -0.000000 0.142093
vn 0.984529 0.000000 -0.175223
vn -0.000000 0.985214 -0.171330
vn 0.908444 0.405881 -0.099952
vn -0.908444 0.405881 -0.099952
vn -0.996980 0.000000 -0.077658
vn -0.908444 -0.405881 -0.099952
vn -0.000000 -0.985214 -0.171330
vn 0.908444 -0.405881 -0.099952
vn 0.996980 0.000000 -0.077658
vn -0.000000 1.000000 -0.000000
vn 0.912917 0.408146 0.000000
vn -0.912917 0.408146 0.000000
vn -1.000000 0.000000 -0.000000
vn -0.912917 -0.408146 -0.000000
vn -0.000000 -1.000000 -0.000000
vn 0.912917 -0.408146 -0.000000
vn 1.000000 0.000000 0.000000
vn -0.000000 0.985214 0.171330
vn 0.908444 0.405881 0.099952
vn -0.908444 0.405881 0.099952
vn -0.996980 -0.000000 0.077658
vn -0.908444 -0.405881 0.099952
vn -0.000000 -0.985214 0.171330
vn 0.908444 -0.405881 0.099952
vn 0.996980 0.000000 0.077658
vn 0.000000 0.928045 0.372468
vn 0.889826 0.396560 0.225721
vn -0.889826 0.396560 0.225721
vn -0.984208 -0.000000 0.177017
vn -0.889826 -0.396559 0.225721
vn -0.000000 -0.928045 0.372468
vn 0.889826 -0.396560 0.225721
vn 0.984208 0.000000 0.177017
vn 0.000000 0.778219 0.627994
vn 0.829126 0.367224 0.421541
vn -0.829126 0.367224 0.421541
vn -0.940415 -0.000000 0.340030
vn -0.829126 -0.367224 0.421541
vn -0.000000 -0.778218 0.627994
vn 0.829126 -0.367224 0.421541
vn 0.940415 -0.000000 0.340030
vn -0.000000 0.982491 -0.186312
vn 0.928454 0.362956 -0.078975
vn 0.000000 0.000000 -1.000000
vn -0.928454 0.362955 -0.078975
vn -0.999068 0.000000 -0.043170
vn -0.928454 -0.362955 -0.078975
vn -0.000000 -0.982491 -0.186312
vn 0.928454 -0.362956 -0.078975
vn 0.999068 -0.000000 -0.043170
vn 0.000000 -0.000000 1.000000
s 1
g FishTest_01_Geo
usemtl initialShadingGroup
f 1/1/1 2/2/2 10/11/3 9/10/4
f 2/2/2 3/3/5 11/12/6 10/11/3
f 3/3/5 4/4/7 12/13/8 11/12/6
f 4/4/7 5/5/9 13/14/10 12/13/8
f 5/5/9 6/6/11 14/15/12 13/14/10
f 6/6/11 7/7/13 15/16/14 14/15/12
f 7/7/13 8/8/15 16/17/16 15/16/14
f 8/8/15 1/9/1 9/18/4 16/17/16
f 9/10/4 10/11/3 18/20/17 17/19/18
f 10/11/3 11/12/6 19/21/19 18/20/17
f 11/12/6 12/13/8 20/22/20 19/21/19
f 12/13/8 13/14/10 21/23/21 20/22/20
f 13/14/10 14/15/12 22/24/22 21/23/21
f 14/15/12 15/16/14 23/25/23 22/24/22
f 15/16/14 16/17/16 24/26/24 23/25/23
f 16/17/16 9/18/4 17/27/18 24/26/24
f 17/19/18 18/20/17 26/29/25 25/28/26
f 18/20/17 19/21/19 27/30/27 26/29/25
f 19/21/19 20/22/20 28/31/28 27/30/27
f 20/22/20 21/23/21 29/32/29 28/31/28
f 21/23/21 22/24/22 30/33/30 29/32/29
f 22/24/22 23/25/23 31/34/31 30/33/30
f 23/25/23 24/26/24 32/35/32 31/34/31
f 24/26/24 17/27/18 25/36/26 32/35/32
f 25/28/26 26/29/25 34/38/33 33/37/34
f 26/29/25 27/30/27 35/39/35 34/38/33
f 27/30/27 28/31/28 36/40/36 35/39/35
f 28/31/28 29/32/29 37/41/37 36/40/36
f 29/32/29 30/33/30 38/42/38 37/41/37
f 30/33/30 31/34/31 39/43/39 38/42/38
f 31/34/31 32/35/32 40/44/40 39/43/39
f 32/35/32 25/36/26 33/45/34 40/44/40
f 33/37/34 34/38/33 42/47/41 41/46/42
f 34/38/33 35/39/35 43/48/43 42/47/41
f 35/39/35 36/40/36 44/49/44 43/48/43
f 36/40/36 37/41/37 45/50/45 44/49/44
f 37/41/37 38/42/38 46/51/46 45/50/45
f 38/42/38 39/43/39 47/52/47 46/51/46
f 39/43/39 40/44/40 48/53/48 47/52/47
f 40/44/40 33/45/34 41/54/42 48/53/48
f 41/46/42 42/47/41 50/56/49 49/55/50
f 42/47/41 43/48/43 51/57/51 50/56/49
f 43/48/43 44/49/44 52/58/52 51/57/51
f 44/49/44 45/50/45 53/59/53 52/58/52
f 45/50/45 46/51/46 54/60/54 53/59/53
f 46/51/46 47/52/47 55/61/55 54/60/54
f 47/52/47 48/53/48 56/62/56 55/61/55
f 48/53/48 41/54/42 49/63/50 56/62/56
f 59/80/57 58/81/58 60/64/59
f 61/82/60 59/80/57 60/65/59
f 62/83/61 61/82/60 60/66/59
f 63/84/62 62/83/61 60/67/59
f 64/85/63 63/84/62 60/68/59
f 65/86/64 64/85/63 60/69/59
f 66/87/65 65/86/64 60/70/59
f 58/88/58 66/87/65 60/71/59
f 49/55/50 50/56/49 57/72/66
f 50/56/49 51/57/51 57/73/66
f 51/57/51 52/58/52 57/74/66
f 52/58/52 53/59/53 57/75/66
f 53/59/53 54/60/54 57/76/66
f 54/60/54 55/61/55 57/77/66
f 55/61/55 56/62/56 57/78/66
f 56/62/56 49/63/50 57/79/66
f 2/2/2 1/1/1 58/81/58 59/80/57
f 3/3/5 2/2/2 59/80/57 61/82/60
f 4/4/7 3/3/5 61/82/60 62/83/61
f 5/5/9 4/4/7 62/83/61 63/84/62
f 6/6/11 5/5/9 63/84/62 64/85/63
f 7/7/13 6/6/11 64/85/63 65/86/64
f 8/8/15 7/7/13 65/86/64 66/87/65
f 1/9/1 8/8/15 66/87/65 58/88/58
