# This file uses centimeters as units for non-parametric coordinates.

mtllib Fish_01_v01a.mtl
v 0.000000 0.500000 1.034230
v -0.000000 -0.500000 1.034230
v 0.000000 0.500000 -1.034230
v -0.000000 -0.500000 -1.034230
v 0.000000 0.500000 0.000000
v -0.000000 -0.500000 0.000000
v -0.000000 -0.500000 0.517115
v -0.000000 -0.500000 -0.517115
v 0.000000 0.500000 -0.517115
v 0.000000 0.500000 0.517115
v -0.000000 -0.500000 0.258558
v -0.000000 -0.500000 0.775673
v -0.000000 -0.500000 -0.258558
v -0.000000 -0.500000 -0.775673
v 0.000000 0.500000 -0.258558
v 0.000000 0.500000 -0.775673
v 0.000000 0.500000 0.258558
v 0.000000 0.500000 0.775673
vt 0.125000 0.483451
vt 0.000000 0.483451
vt 0.000000 0.000000
vt 0.125000 0.000000
vt 0.375000 0.483451
vt 0.250000 0.483451
vt 0.250000 0.000000
vt 0.375000 0.000000
vt 0.500000 0.000000
vt 0.500000 0.483451
vt 0.625000 0.483451
vt 0.625000 0.000000
vt 0.750000 0.000000
vt 0.750000 0.483451
vt 0.875000 0.483451
vt 0.875000 0.000000
vt 1.000000 0.000000
vt 1.000000 0.483451
vn 1.000000 -0.000000 0.000000
vn 1.000000 -0.000000 0.000000
vn 1.000000 -0.000000 0.000000
vn 1.000000 -0.000000 0.000000
vn 1.000000 -0.000000 0.000000
vn 1.000000 -0.000000 0.000000
vn 1.000000 -0.000000 0.000000
vn 1.000000 -0.000000 0.000000
vn 1.000000 -0.000000 0.000000
vn 1.000000 -0.000000 0.000000
vn 1.000000 -0.000000 0.000000
vn 1.000000 -0.000000 0.000000
vn 1.000000 -0.000000 0.000000
vn 1.000000 -0.000000 0.000000
vn 1.000000 -0.000000 0.000000
vn 1.000000 -0.000000 0.000000
vn 1.000000 -0.000000 0.000000
vn 1.000000 -0.000000 0.000000
s 1
g pPlane1
usemtl initialShadingGroup
f 18/1/1 1/2/2 2/3/3 12/4/4
f 17/5/5 10/6/6 7/7/7 11/8/8
f 18/1/1 12/4/4 7/7/7 10/6/6
f 17/5/5 11/8/8 6/9/9 5/10/10
f 15/11/11 13/12/12 8/13/13 9/14/14
f 16/15/15 14/16/16 4/17/17 3/18/18
f 15/11/11 5/10/10 6/9/9 13/12/12
f 16/15/15 9/14/14 8/13/13 14/16/16
