# This file uses centimeters as units for non-parametric coordinates.

mtllib Grass_05b_v01a.mtl
v -0.575974 0.000000 -0.116877
v -0.556957 1.161403 -0.096710
v 0.855591 3.188746 0.073430
v -0.384309 2.473570 0.086508
v 0.044989 3.546087 0.541588
v 0.485860 2.272958 -0.318468
v 0.340484 1.135838 -0.472784
v 0.324500 0.000000 -0.490007
v 0.527571 4.229010 1.048585
v 1.313713 3.845910 0.569360
v -0.575963 0.565213 -0.116881
v 1.077345 3.531992 0.308430
v -0.499962 1.819545 -0.036190
v -0.189327 3.057408 0.293208
v 0.649996 2.766256 -0.144468
v 0.388481 1.717286 -0.421778
v 0.278646 3.914638 0.789324
v 0.324491 0.565213 -0.489874
vt 0.807282 0.855102
vt 0.979185 0.855102
vt 0.979185 0.949067
vt 0.807282 0.949067
vt 0.807282 0.239494
vt 0.807282 0.145648
vt 0.979185 0.145648
vt 0.979185 0.239494
vt 0.979185 0.336784
vt 0.807282 0.336784
vt 0.807282 0.760878
vt 0.979185 0.760878
vt 0.979185 0.441755
vt 0.979185 0.548973
vt 0.807282 0.548973
vt 0.807282 0.441755
vt 0.979185 0.656581
vt 0.807282 0.656581
vn -0.136976 0.652923 -0.744935
vn -0.136685 0.653230 -0.744720
vn -0.108343 0.682294 -0.723005
vn -0.108343 0.682294 -0.723006
vn -0.383353 0.020992 -0.923363
vn -0.382751 0.000105 -0.923851
vn -0.382751 0.000105 -0.923851
vn -0.383346 0.020722 -0.923372
vn -0.383507 0.078699 -0.920179
vn -0.383493 0.079626 -0.920105
vn -0.204144 0.574945 -0.792315
vn -0.203172 0.576171 -0.791675
vn -0.374656 0.173816 -0.910725
vn -0.338179 0.319464 -0.885199
vn -0.338196 0.319411 -0.885212
vn -0.374571 0.174385 -0.910652
vn -0.274151 0.468515 -0.839842
vn -0.274592 0.467723 -0.840140
s 1
g Grass_05b_Geo
usemtl lambert2SG
f 12/1/1 17/2/2 9/3/3 10/4/4
f 18/5/5 8/6/6 1/7/7 11/8/8
f 18/5/5 11/8/8 2/9/9 7/10/10
f 17/2/2 12/1/1 3/11/11 5/12/12
f 13/13/13 4/14/14 6/15/15 16/16/16
f 14/17/17 5/12/12 3/11/11 15/18/18
f 14/17/17 15/18/18 6/15/15 4/14/14
f 13/13/13 16/16/16 7/10/10 2/9/9
