# This file uses centimeters as units for non-parametric coordinates.

mtllib Grass_01_v01a.mtl
v -0.226605 0.000000 0.685071
v 0.226605 0.000000 0.685071
v -0.621149 4.551383 0.647026
v -0.172309 4.614166 0.646605
v -0.619875 4.533080 -0.722993
v -0.171035 4.595864 -0.723414
v -0.226605 0.000000 -0.685071
v 0.226605 0.000000 -0.685071
v -0.306323 2.277671 0.677384
v 0.143855 2.330009 0.677092
v 0.144739 2.314752 -0.692965
v -0.305439 2.262413 -0.692673
v -0.460609 3.394590 -0.707635
v -0.011769 3.457373 -0.708057
v -0.013043 3.475675 0.661962
v -0.461883 3.412892 0.662384
v -0.229116 1.146366 0.684829
v 0.223998 1.155671 0.684820
v 0.224026 1.152958 -0.685320
v -0.229089 1.143653 -0.685310
vt 0.375000 0.000000
vt 0.625000 0.000000
vt 0.375000 0.250000
vt 0.625000 0.250000
vt 0.375000 0.500000
vt 0.625000 0.500000
vt 0.375000 0.750000
vt 0.625000 0.750000
vt 0.875000 0.000000
vt 0.875000 0.250000
vt 0.125000 0.000000
vt 0.125000 0.250000
vt 0.375000 0.125000
vt 0.625000 0.125000
vt 0.625000 0.625000
vt 0.875000 0.125000
vt 0.125000 0.125000
vt 0.375000 0.625000
vt 0.125000 0.187500
vt 0.375000 0.562500
vt 0.625000 0.562500
vt 0.875000 0.187500
vt 0.625000 0.187500
vt 0.375000 0.187500
vt 0.375000 0.062500
vt 0.625000 0.062500
vt 0.625000 0.687500
vt 0.875000 0.062500
vt 0.125000 0.062500
vt 0.375000 0.687500
vn -0.000666 0.011257 0.999936
vn -0.000288 0.008048 0.999968
vn -0.000892 0.013142 0.999913
vn -0.000920 0.013303 0.999911
vn -0.138531 0.990268 -0.013358
vn -0.138531 0.990268 -0.013358
vn -0.138531 0.990268 -0.013358
vn -0.138531 0.990268 -0.013358
vn 0.000920 -0.013304 -0.999911
vn 0.000892 -0.013144 -0.999913
vn 0.000290 -0.008058 -0.999967
vn 0.000668 -0.011270 -0.999936
vn 0.994854 0.101317 -0.000491
vn 0.994773 0.102106 -0.000500
vn 0.990554 0.137123 -0.000906
vn 0.990559 0.137084 -0.000905
vn -0.994720 -0.102627 0.000506
vn -0.994801 -0.101836 0.000497
vn -0.990553 -0.137131 0.000906
vn -0.990547 -0.137169 0.000907
vn -0.000064 0.003930 0.999992
vn -0.000038 0.002622 0.999997
vn 0.999379 0.035232 -0.000053
vn 0.999366 0.035604 -0.000054
vn 0.000038 -0.002608 -0.999997
vn 0.000064 -0.003916 -0.999992
vn -0.999384 -0.035086 0.000053
vn -0.999397 -0.034714 0.000052
vn 0.000930 -0.013358 -0.999910
vn 0.000930 -0.013358 -0.999910
vn 0.990358 0.138531 -0.000930
vn 0.990358 0.138531 -0.000930
vn -0.000930 0.013358 0.999910
vn -0.000930 0.013358 0.999910
vn -0.990358 -0.138531 0.000930
vn -0.990358 -0.138531 0.000930
vn 0.000008 0.000214 1.000000
vn 0.000008 0.000214 1.000000
vn 0.999997 0.002246 0.000008
vn 0.999997 0.002246 0.000008
vn -0.000008 -0.000213 -1.000000
vn -0.000008 -0.000213 -1.000000
vn -0.999998 -0.002181 -0.000008
vn -0.999998 -0.002181 -0.000008
s 1
g Grass_01_Geo
usemtl initialShadingGroup
f 9/13/1 10/14/2 15/23/3 16/24/4
s off
f 3/3/5 4/4/6 6/6/7 5/5/8
s 2
f 13/20/9 14/21/10 11/15/11 12/18/12
s 3
f 10/14/13 11/16/14 14/22/15 15/23/16
s 4
f 12/17/17 9/13/18 16/24/19 13/19/20
s 1
f 17/25/21 18/26/22 10/14/2 9/13/1
s 3
f 18/26/23 19/28/24 11/16/14 10/14/13
s 2
f 12/18/12 11/15/11 19/27/25 20/30/26
s 4
f 20/29/27 17/25/28 9/13/18 12/17/17
s 2
f 5/5/29 6/6/30 14/21/10 13/20/9
s 3
f 15/23/16 14/22/15 6/10/31 4/4/32
s 1
f 16/24/4 15/23/3 4/4/33 3/3/34
s 4
f 13/19/20 16/24/19 3/3/35 5/12/36
s 1
f 1/1/37 2/2/38 18/26/22 17/25/21
s 3
f 2/2/39 8/9/40 19/28/24 18/26/23
s 2
f 20/30/26 19/27/25 8/8/41 7/7/42
s 4
f 7/11/43 1/1/44 17/25/28 20/29/27
