# This file uses centimeters as units for non-parametric coordinates.

mtllib Grass_02_v01a.mtl
v 0.044982 -0.000119 0.576850
v -0.003114 1.019617 0.504572
v -0.464171 0.000019 0.345528
v -0.441385 1.029075 0.292361
v -0.326620 3.074068 -1.083455
v -0.630652 2.711603 -1.126860
v -0.241955 2.297148 0.265016
v -0.812321 3.344324 -0.310795
v -0.630604 2.100345 0.085095
v -1.112906 2.968349 -0.387287
v -0.218756 1.968128 -0.700891
v -0.051555 1.026402 -0.544934
v 0.174739 2.148785 -0.573306
v 0.388196 1.013295 -0.360744
v -0.044909 0.000128 -0.576921
v 0.464159 -0.000028 -0.345441
v -1.381675 3.987482 -0.867942
v -1.719382 3.563131 -0.933372
v -0.856879 3.692093 -1.666671
v -1.194819 3.267975 -1.731627
v -0.438609 0.508638 0.328411
v -0.898681 2.996639 -1.414797
v -0.084451 1.651986 0.421827
v -1.096892 3.694526 -0.589081
v -0.500837 1.573148 0.218443
v -1.407259 3.280718 -0.651703
v -0.398577 2.367819 -0.884066
v -0.037709 0.518100 -0.548353
v -0.055566 2.650793 -0.804241
v 0.433770 0.493835 -0.340385
v -0.586390 3.402703 -1.369675
v 0.032392 0.485248 0.550033
v -0.505961 2.869897 -0.002645
v -0.844324 2.570151 -0.129253
v -0.107494 1.515367 -0.591814
v 0.312256 1.583948 -0.431930
vt 0.625000 0.500000
vt 0.625000 0.250000
vt 0.375000 0.250000
vt 0.375000 0.500000
vt 0.625000 0.531926
vt 0.375000 0.531947
vt 0.375000 0.562500
vt 0.625000 0.562500
vt 0.125000 0.218053
vt 0.125000 0.250000
vt 0.377217 0.217617
vt 0.624018 0.031269
vt 0.375955 0.031220
vt 0.376040 0.062456
vt 0.623936 0.062528
vt 0.376124 0.124993
vt 0.376115 0.156250
vt 0.624001 0.156250
vt 0.623980 0.125005
vt 0.376377 0.187217
vt 0.623646 0.187220
vt 0.875000 0.187500
vt 0.875000 0.156250
vt 0.375000 0.625000
vt 0.375000 0.656250
vt 0.625000 0.656250
vt 0.625000 0.625000
vt 0.375000 0.687500
vt 0.625000 0.687500
vt 0.376098 0.093720
vt 0.125000 0.093750
vt 0.125000 0.125000
vt 0.875000 0.062500
vt 0.750000 0.406250
vt 0.625000 0.000000
vt 0.375000 0.000000
vt 0.875000 0.250000
vt 0.875000 0.218074
vt 0.622556 0.217629
vt 0.623941 0.093769
vt 0.125000 0.062500
vt 0.125000 0.187500
vt 0.875000 0.093750
vt 0.875000 0.125000
vt 0.625000 0.593750
vt 0.375000 0.593750
vt 0.625000 0.750000
vt 0.625000 0.718750
vt 0.250000 0.343750
vt 0.125000 0.156250
vt 0.125000 0.000000
vt 0.125000 0.031250
vn -0.584913 0.556458 -0.590111
vn -0.584913 0.556458 -0.590111
vn -0.584913 0.556458 -0.590111
vn -0.584913 0.556458 -0.590111
vn 0.521843 -0.315164 -0.792687
vn 0.523295 -0.315235 -0.791700
vn 0.480493 -0.301622 -0.823499
vn 0.474967 -0.298976 -0.827659
vn 0.664991 0.728711 0.163607
vn 0.642822 0.752837 0.141477
vn 0.642822 0.752837 0.141477
vn 0.664459 0.729317 0.163067
vn -0.423402 0.049956 0.904564
vn -0.422869 0.049509 0.904837
vn -0.434152 0.059900 0.898846
vn -0.435199 0.060947 0.898269
vn -0.469860 0.141372 0.871347
vn -0.489960 0.197528 0.849071
vn -0.489262 0.195596 0.849921
vn -0.469863 0.141379 0.871344
vn -0.499584 0.230409 0.835061
vn -0.499195 0.228398 0.835846
vn -0.758142 -0.584719 -0.288660
vn -0.681467 -0.704242 -0.199111
vn -0.683405 -0.701685 -0.201484
vn -0.759323 -0.582527 -0.289987
vn 0.381397 -0.182987 -0.906119
vn 0.371205 -0.093940 -0.923787
vn 0.370855 -0.097912 -0.923515
vn 0.381349 -0.182828 -0.906171
vn 0.386347 -0.020676 -0.922122
vn 0.384519 -0.026183 -0.922746
vn 0.887736 0.239234 0.393310
vn 0.887446 0.240745 0.393040
vn 0.842512 0.412129 0.346876
vn 0.842512 0.412129 0.346876
vn -0.909046 0.004830 -0.416667
vn -0.903389 -0.085637 -0.420184
vn -0.903103 -0.088456 -0.420215
vn -0.909021 0.003946 -0.416731
vn -0.418152 0.045558 0.907234
vn -0.418152 0.045558 0.907234
vn -0.607594 -0.786559 -0.110243
vn -0.625263 -0.769236 -0.131610
vn -0.624728 -0.769783 -0.130953
vn -0.607594 -0.786559 -0.110243
vn 0.535780 -0.315811 -0.783073
vn 0.535780 -0.315811 -0.783073
vn -0.449373 0.087610 0.889038
vn -0.448627 0.085770 0.889594
vn 0.903443 0.133548 0.407378
vn 0.903242 0.135258 0.407259
vn 0.713147 0.667305 0.214769
vn 0.714282 0.665680 0.216036
vn -0.882240 -0.230202 -0.410682
vn -0.882640 -0.228174 -0.410953
vn -0.833565 -0.412918 -0.366971
vn -0.833634 -0.412719 -0.367038
vn -0.509002 0.268629 0.817775
vn -0.505386 0.255084 0.824329
vn -0.505726 0.256343 0.823729
vn -0.509002 0.268629 0.817775
vn 0.419549 -0.255990 -0.870889
vn 0.422379 -0.259087 -0.868603
vn -0.909473 0.033647 -0.414400
vn -0.909473 0.033647 -0.414400
vn 0.402637 0.023836 -0.915049
vn 0.403355 0.025485 -0.914689
vn 0.772391 0.571411 0.277309
vn 0.771651 0.572784 0.276538
vn 0.409472 0.039672 -0.911460
vn 0.409472 0.039672 -0.911460
vn 0.908741 0.072646 0.410990
vn 0.908778 0.071980 0.411024
vn 0.909823 0.049091 0.412083
vn 0.909823 0.049091 0.412083
s off
g Grass_02_Geo
usemtl initialShadingGroup
f 20/1/1 18/2/2 17/3/3 19/4/4
s 1
f 22/5/5 31/6/6 5/7/7 6/8/8
s 2
f 31/9/9 19/10/10 17/3/11 24/11/12
s 3
f 21/12/13 32/13/14 2/14/15 4/15/16
f 7/16/17 33/17/18 34/18/19 9/19/20
f 33/17/18 8/20/21 10/21/22 34/18/19
s 5
f 34/18/23 10/21/24 6/22/25 27/23/26
s 1
f 13/24/27 36/25/28 35/26/29 11/27/30
f 36/25/28 14/28/31 12/29/32 35/26/29
s 2
f 23/30/33 36/31/34 13/32/35 7/16/36
s 5
f 21/12/37 4/15/38 12/33/39 28/34/40
s 3
f 21/12/13 3/35/41 1/36/42 32/13/14
s 5
f 20/37/43 22/38/44 26/39/45 18/2/46
f 26/39/45 22/38/44 6/22/25 10/21/24
s 1
f 22/5/5 20/1/47 19/4/48 31/6/6
s 3
f 25/40/49 23/30/50 7/16/17 9/19/20
s 2
f 23/30/33 2/14/51 14/41/52 36/31/34
f 31/9/9 24/11/12 8/20/53 5/42/54
s 5
f 35/43/55 12/33/39 4/15/38 25/40/56
f 35/43/55 25/40/56 9/19/57 11/44/58
s 3
f 25/40/49 4/15/16 2/14/15 23/30/50
f 18/2/59 26/39/60 24/11/61 17/3/62
f 24/11/61 26/39/60 10/21/22 8/20/21
s 5
f 34/18/23 27/23/26 11/44/58 9/19/57
s 1
f 27/45/63 6/8/8 5/7/7 29/46/64
s 5
f 21/12/37 28/34/40 15/47/65 3/35/66
s 1
f 28/48/67 12/29/32 14/28/31 30/49/68
f 27/45/63 29/46/64 13/24/27 11/27/30
s 2
f 29/50/69 5/42/54 8/20/53 33/17/70
f 29/50/69 33/17/70 7/16/36 13/32/35
s 1
f 28/48/67 30/49/68 16/51/71 15/47/72
s 2
f 30/52/73 14/41/52 2/14/51 32/13/74
f 30/52/73 32/13/74 1/36/75 16/51/76
