# This file uses centimeters as units for non-parametric coordinates.

mtllib Grass_04b_v01a.mtl
v -0.328461 0.000000 0.487360
v -0.302551 0.862088 0.477511
v 0.395363 2.366947 -0.762310
v -0.067198 1.836085 0.388151
v 0.517556 2.632195 0.165762
v -0.108219 1.687175 -0.570763
v -0.306432 0.843112 -0.495534
v -0.328461 0.000000 -0.487360
v 1.170671 3.139116 -0.085979
v 1.028890 2.854748 -0.995690
v -0.328461 0.419548 0.487348
v 0.697352 2.621732 -0.877212
v -0.224822 1.350615 0.448025
v 0.198398 2.269457 0.287148
v 0.115360 2.053341 -0.655788
v -0.240937 1.274709 -0.520350
v 0.835867 2.905763 0.044738
v -0.328342 0.419548 -0.487301
vt 0.238108 0.872150
vt 0.381432 0.872150
vt 0.381432 0.968274
vt 0.238108 0.968274
vt 0.238108 0.190269
vt 0.238108 0.093028
vt 0.381432 0.093028
vt 0.381432 0.190268
vt 0.381432 0.293657
vt 0.238108 0.293657
vt 0.238108 0.771668
vt 0.381432 0.771668
vt 0.381432 0.409342
vt 0.381432 0.531767
vt 0.238108 0.531767
vt 0.238108 0.409342
vt 0.381432 0.655375
vt 0.238108 0.655375
vn -0.638042 0.757779 -0.136653
vn -0.637697 0.758043 -0.136797
vn -0.604024 0.782639 -0.150435
vn -0.604024 0.782639 -0.150435
vn -0.999600 0.028276 0.000682
vn -1.000000 0.000141 -0.000061
vn -1.000000 0.000141 -0.000061
vn -0.999610 0.027912 0.000672
vn -0.994390 0.105757 0.002038
vn -0.994257 0.106996 0.002054
vn -0.719030 0.687480 -0.101813
vn -0.717850 0.688634 -0.102347
vn -0.972871 0.231335 -0.002484
vn -0.910137 0.413528 -0.025407
vn -0.910166 0.413465 -0.025396
vn -0.972695 0.232073 -0.002534
vn -0.811241 0.581325 -0.062840
vn -0.811858 0.580491 -0.062586
s 1
g Grass_04b_Geo
usemtl lambert2SG
f 12/1/1 17/2/2 9/3/3 10/4/4
f 18/5/5 8/6/6 1/7/7 11/8/8
f 18/5/5 11/8/8 2/9/9 7/10/10
f 17/2/2 12/1/1 3/11/11 5/12/12
f 13/13/13 4/14/14 6/15/15 16/16/16
f 14/17/17 5/12/12 3/11/11 15/18/18
f 14/17/17 15/18/18 6/15/15 4/14/14
f 13/13/13 16/16/16 7/10/10 2/9/9
