# This file uses centimeters as units for non-parametric coordinates.

mtllib Mine_v01a.mtl
v 0.093017 13.994507 0.014526
v -0.093017 13.994507 0.014526
v -0.093017 0.000000 0.014527
v 0.093017 0.000000 0.014527
v -0.093017 6.997253 0.014526
v 0.093017 6.997253 0.014527
v 0.014679 13.994507 -0.093017
v 0.014679 13.994507 0.093017
v 0.014681 0.000000 0.093017
v 0.014681 0.000000 -0.093017
v 0.014680 6.997253 0.093017
v 0.014681 6.997253 -0.093017
v 0.324676 13.876650 -0.187452
v 0.187452 13.876650 -0.324676
v 0.000000 13.876650 -0.374903
v -0.187452 13.876650 -0.324676
v -0.324676 13.876650 -0.187452
v -0.374903 13.876650 0.000000
v -0.324676 13.876650 0.187452
v -0.187452 13.876650 0.324676
v 0.000000 13.876650 0.374903
v 0.187452 13.876650 0.324676
v 0.324676 13.876650 0.187452
v 0.374903 13.876650 0.000000
v 0.627225 14.021358 -0.362129
v 0.362129 14.021358 -0.627225
v 0.000000 14.021358 -0.724257
v -0.362129 14.021358 -0.627225
v -0.627225 14.021358 -0.362129
v -0.724257 14.021358 0.000000
v -0.627225 14.021358 0.362129
v -0.362129 14.021358 0.627225
v 0.000000 14.021358 0.724257
v 0.362129 14.021358 0.627225
v 0.627225 14.021358 0.362129
v 0.724257 14.021358 0.000000
v 0.887030 14.251554 -0.512127
v 0.512127 14.251554 -0.887030
v 0.000000 14.251554 -1.024254
v -0.512127 14.251554 -0.887030
v -0.887030 14.251554 -0.512127
v -1.024254 14.251554 0.000000
v -0.887030 14.251554 0.512127
v -0.512127 14.251554 0.887030
v 0.000000 14.251554 1.024254
v 0.512127 14.251554 0.887030
v 0.887030 14.251554 0.512127
v 1.024254 14.251554 0.000000
v 1.086386 14.551551 -0.627225
v 0.627225 14.551551 -1.086386
v 0.000000 14.551551 -1.254450
v -0.627225 14.551551 -1.086386
v -1.086386 14.551551 -0.627225
v -1.254450 14.551551 0.000000
v -1.086386 14.551551 0.627225
v -0.627225 14.551551 1.086386
v 0.000000 14.551551 1.254450
v 0.627225 14.551551 1.086386
v 1.086386 14.551551 0.627225
v 1.254450 14.551551 0.000000
v 1.211706 14.900906 -0.699579
v 0.699579 14.900906 -1.211706
v 0.000000 14.900906 -1.399157
v -0.699579 14.900906 -1.211706
v -1.211706 14.900906 -0.699579
v -1.399157 14.900906 0.000000
v -1.211706 14.900906 0.699579
v -0.699579 14.900906 1.211706
v 0.000000 14.900906 1.399157
v 0.699579 14.900906 1.211706
v 1.211706 14.900906 0.699579
v 1.399157 14.900906 0.000000
v 1.254450 15.275807 -0.724257
v 0.724257 15.275807 -1.254450
v 0.000000 15.275807 -1.448514
v -0.724257 15.275807 -1.254450
v -1.254450 15.275807 -0.724257
v -1.448514 15.275807 0.000000
v -1.254450 15.275807 0.724257
v -0.724257 15.275807 1.254450
v 0.000000 15.275807 1.448514
v 0.724257 15.275807 1.254450
v 1.254450 15.275807 0.724257
v 1.448514 15.275807 0.000000
v 1.211706 15.650710 -0.699579
v 0.699579 15.650710 -1.211706
v 0.000000 15.650710 -1.399157
v -0.699579 15.650710 -1.211706
v -1.211706 15.650710 -0.699579
v -1.399157 15.650710 0.000000
v -1.211706 15.650710 0.699579
v -0.699579 15.650710 1.211706
v 0.000000 15.650710 1.399157
v 0.699579 15.650710 1.211706
v 1.211706 15.650710 0.699579
v 1.399157 15.650710 0.000000
v 1.086386 16.000065 -0.627225
v 0.627225 16.000065 -1.086386
v 0.000000 16.000065 -1.254450
v -0.627225 16.000065 -1.086386
v -1.086386 16.000065 -0.627225
v -1.254450 16.000065 0.000000
v -1.086386 16.000065 0.627225
v -0.627225 16.000065 1.086386
v 0.000000 16.000065 1.254450
v 0.627225 16.000065 1.086386
v 1.086386 16.000065 0.627225
v 1.254450 16.000065 0.000000
v 0.887030 16.300062 -0.512127
v 0.512127 16.300062 -0.887030
v 0.000000 16.300062 -1.024254
v -0.512127 16.300062 -0.887030
v -0.887030 16.300062 -0.512127
v -1.024254 16.300062 0.000000
v -0.887030 16.300062 0.512127
v -0.512127 16.300062 0.887030
v 0.000000 16.300062 1.024254
v 0.512127 16.300062 0.887030
v 0.887030 16.300062 0.512127
v 1.024254 16.300062 0.000000
v 0.627225 16.530258 -0.362129
v 0.362129 16.530258 -0.627225
v 0.000000 16.530258 -0.724257
v -0.362129 16.530258 -0.627225
v -0.627225 16.530258 -0.362129
v -0.724257 16.530258 0.000000
v -0.627225 16.530258 0.362129
v -0.362129 16.530258 0.627225
v 0.000000 16.530258 0.724257
v 0.362129 16.530258 0.627225
v 0.627225 16.530258 0.362129
v 0.724257 16.530258 0.000000
v 0.324676 16.674965 -0.187452
v 0.187452 16.674965 -0.324676
v 0.000000 16.674965 -0.374903
v -0.187452 16.674965 -0.324676
v -0.324676 16.674965 -0.187452
v -0.374903 16.674965 0.000000
v -0.324676 16.674965 0.187452
v -0.187452 16.674965 0.324676
v 0.000000 16.674965 0.374903
v 0.187452 16.674965 0.324676
v 0.324676 16.674965 0.187452
v 0.374903 16.674965 0.000000
v 0.000000 13.827293 0.000000
v 0.000000 16.724323 0.000000
v 0.813351 15.258316 -0.961068
v 0.841562 15.381106 -0.932856
v 0.932856 15.381106 -0.841562
v 0.961068 15.258316 -0.813351
v 0.887209 15.182427 -0.887209
v 1.147444 15.258316 -1.295161
v 1.175656 15.381106 -1.266950
v 1.266950 15.381106 -1.175656
v 1.295161 15.258316 -1.147444
v 1.221303 15.182427 -1.221303
v 0.104452 14.635511 1.069636
v 0.064555 14.741852 1.131031
v -0.064555 14.741852 1.131031
v -0.104452 14.635511 1.069636
v -0.000000 14.569790 1.031691
v 0.104452 14.399272 1.478815
v 0.064555 14.505611 1.540210
v -0.064555 14.505611 1.540210
v -0.104452 14.399272 1.478815
v -0.000000 14.333550 1.440871
v 0.104452 14.188681 0.597960
v 0.064555 14.250076 0.704300
v -0.064555 14.250076 0.704300
v -0.104452 14.188681 0.597960
v -0.000000 14.150737 0.532238
v 0.104452 13.779502 0.834200
v 0.064555 13.840897 0.940540
v -0.064555 13.840897 0.940540
v -0.104452 13.779502 0.834200
v -0.000000 13.741557 0.768478
v 0.104452 14.222619 -0.656743
v 0.064555 14.161224 -0.550403
v -0.064555 14.161224 -0.550403
v -0.104452 14.222619 -0.656743
v -0.000000 14.260564 -0.722465
v 0.104452 13.813440 -0.892983
v 0.064555 13.752045 -0.786643
v -0.064555 13.752045 -0.786643
v -0.104452 13.813440 -0.892983
v -0.000000 13.851384 -0.958705
v 0.104452 14.694295 -1.103574
v 0.064555 14.587955 -1.042179
v -0.064555 14.587955 -1.042179
v -0.104452 14.694295 -1.103574
v -0.000000 14.760016 -1.141519
v 0.104452 14.458055 -1.512754
v 0.064555 14.351715 -1.451358
v -0.064555 14.351715 -1.451358
v -0.104452 14.458055 -1.512754
v -0.000000 14.523777 -1.550698
v 0.104452 15.948999 -1.069636
v 0.064555 15.842659 -1.131031
v -0.064555 15.842659 -1.131031
v -0.104452 15.948999 -1.069636
v -0.000000 16.014721 -1.031691
v 0.104452 16.185240 -1.478815
v 0.064555 16.078899 -1.540210
v -0.064555 16.078899 -1.540210
v -0.104452 16.185240 -1.478815
v -0.000000 16.250961 -1.440871
v 0.104452 15.890216 1.103574
v 0.064555 15.996555 1.042179
v -0.064555 15.996555 1.042179
v -0.104452 15.890216 1.103574
v -0.000000 15.824494 1.141519
v 0.104452 16.126455 1.512754
v 0.064555 16.232796 1.451358
v -0.064555 16.232796 1.451358
v -0.104452 16.126455 1.512754
v 0.000000 16.060734 1.550698
v 0.682488 14.635511 -0.830205
v 0.754113 14.741852 -0.845407
v 0.845407 14.741852 -0.754113
v 0.830205 14.635511 -0.682488
v 0.729516 14.569790 -0.729516
v 0.971822 14.399272 -1.119539
v 1.043446 14.505611 -1.134740
v 1.134740 14.505611 -1.043446
v 1.119539 14.399272 -0.971822
v 1.018849 14.333550 -1.018849
v 0.348963 14.188681 -0.496680
v 0.452368 14.250076 -0.543662
v 0.543662 14.250076 -0.452368
v 0.496680 14.188681 -0.348963
v 0.376349 14.150737 -0.376349
v 0.516010 13.779502 -0.663727
v 0.619415 13.840897 -0.710709
v 0.710709 13.840897 -0.619415
v 0.663727 13.779502 -0.516010
v 0.543396 13.741557 -0.543396
v 0.104452 16.395830 -0.597960
v 0.064555 16.334435 -0.704300
v -0.064555 16.334435 -0.704300
v -0.104452 16.395830 -0.597960
v -0.000000 16.433775 -0.532238
v 0.104452 16.805010 -0.834200
v 0.064555 16.743614 -0.940540
v -0.064555 16.743614 -0.940540
v -0.104452 16.805010 -0.834200
v -0.000000 16.842953 -0.768478
v -0.538246 14.222619 0.390529
v -0.434841 14.161224 0.343547
v -0.343547 14.161224 0.434841
v -0.390529 14.222619 0.538246
v -0.510860 14.260564 0.510860
v -0.705293 13.813440 0.557576
v -0.601888 13.752045 0.510594
v -0.510594 13.752045 0.601888
v -0.557576 13.813440 0.705293
v -0.677907 13.851384 0.677907
v -0.854203 14.694295 0.706486
v -0.782579 14.587955 0.691285
v -0.691285 14.587955 0.782579
v -0.706486 14.694295 0.854203
v -0.807176 14.760016 0.807176
v -1.143537 14.458055 0.995820
v -1.071913 14.351715 0.980618
v -0.980618 14.351715 1.071913
v -0.995820 14.458055 1.143537
v -1.096509 14.523777 1.096509
v 0.104452 16.361891 0.656743
v 0.064555 16.423286 0.550403
v -0.064555 16.423286 0.550403
v -0.104452 16.361891 0.656743
v -0.000000 16.323948 0.722465
v 0.104452 16.771070 0.892983
v 0.064555 16.832466 0.786643
v -0.064555 16.832466 0.786643
v -0.104452 16.771070 0.892983
v -0.000000 16.733126 0.958705
v -0.830205 15.948999 0.682488
v -0.845407 15.842659 0.754113
v -0.754113 15.842659 0.845407
v -0.682488 15.948999 0.830205
v -0.729516 16.014721 0.729516
v -1.119539 16.185240 0.971822
v -1.134740 16.078899 1.043446
v -1.043446 16.078899 1.134740
v -0.971822 16.185240 1.119539
v -1.018849 16.250961 1.018849
v 0.390529 16.361891 -0.538246
v 0.343547 16.423286 -0.434841
v 0.434841 16.423286 -0.343547
v 0.538246 16.361891 -0.390529
v 0.510860 16.323948 -0.510860
v 0.557576 16.771070 -0.705293
v 0.510594 16.832466 -0.601888
v 0.601888 16.832466 -0.510594
v 0.705293 16.771070 -0.557576
v 0.677907 16.733126 -0.677907
v 0.706486 15.890216 -0.854203
v 0.691285 15.996555 -0.782579
v 0.782579 15.996555 -0.691285
v 0.854203 15.890216 -0.706486
v 0.807176 15.824494 -0.807176
v 0.995820 16.126455 -1.143537
v 0.980618 16.232796 -1.071913
v 1.071913 16.232796 -0.980618
v 1.143537 16.126455 -0.995820
v 1.096509 16.060734 -1.096509
v 1.069636 14.635511 -0.104452
v 1.131031 14.741852 -0.064555
v 1.131031 14.741852 0.064555
v 1.069636 14.635511 0.104452
v 1.031691 14.569790 0.000000
v 1.478815 14.399272 -0.104452
v 1.540210 14.505611 -0.064555
v 1.540210 14.505611 0.064555
v 1.478815 14.399272 0.104452
v 1.440871 14.333550 0.000000
v 0.597960 14.188681 -0.104452
v 0.704300 14.250076 -0.064555
v 0.704300 14.250076 0.064555
v 0.597960 14.188681 0.104452
v 0.532238 14.150737 0.000000
v 0.834200 13.779502 -0.104452
v 0.940540 13.840897 -0.064555
v 0.940540 13.840897 0.064555
v 0.834200 13.779502 0.104452
v 0.768478 13.741557 0.000000
v -0.496680 16.395830 0.348963
v -0.543662 16.334435 0.452368
v -0.452368 16.334435 0.543662
v -0.348963 16.395830 0.496680
v -0.376349 16.433775 0.376349
v -0.663727 16.805010 0.516010
v -0.710709 16.743614 0.619415
v -0.619415 16.743614 0.710709
v -0.516010 16.805010 0.663727
v -0.543396 16.842953 0.543396
v -0.656743 14.222619 -0.104452
v -0.550403 14.161224 -0.064555
v -0.550403 14.161224 0.064555
v -0.656743 14.222619 0.104452
v -0.722465 14.260564 0.000000
v -0.892983 13.813440 -0.104452
v -0.786643 13.752045 -0.064555
v -0.786643 13.752045 0.064555
v -0.892983 13.813440 0.104452
v -0.958705 13.851384 0.000000
v -1.103574 14.694295 -0.104452
v -1.042179 14.587955 -0.064555
v -1.042179 14.587955 0.064555
v -1.103574 14.694295 0.104452
v -1.141519 14.760016 0.000000
v -1.512754 14.458055 -0.104452
v -1.451358 14.351715 -0.064555
v -1.451358 14.351715 0.064555
v -1.512754 14.458055 0.104452
v -1.550698 14.523777 0.000000
v -1.069636 15.948999 -0.104452
v -1.131031 15.842659 -0.064555
v -1.131031 15.842659 0.064555
v -1.069636 15.948999 0.104452
v -1.031691 16.014721 0.000000
v -1.478815 16.185240 -0.104452
v -1.540210 16.078899 -0.064555
v -1.540210 16.078899 0.064555
v -1.478815 16.185240 0.104452
v -1.440871 16.250961 0.000000
v -0.597960 16.395830 -0.104452
v -0.704300 16.334435 -0.064555
v -0.704300 16.334435 0.064555
v -0.597960 16.395830 0.104452
v -0.532238 16.433775 0.000000
v -0.834200 16.805010 -0.104452
v -0.940540 16.743614 -0.064555
v -0.940540 16.743614 0.064555
v -0.834200 16.805010 0.104452
v -0.768478 16.842953 0.000000
v -0.348963 16.395830 -0.496680
v -0.452368 16.334435 -0.543662
v -0.543662 16.334435 -0.452368
v -0.496680 16.395830 -0.348963
v -0.376349 16.433775 -0.376349
v -0.516010 16.805010 -0.663727
v -0.619415 16.743614 -0.710709
v -0.710709 16.743614 -0.619415
v -0.663727 16.805010 -0.516010
v -0.543396 16.842953 -0.543396
v -0.961068 15.258316 -0.813351
v -0.932856 15.381106 -0.841562
v -0.841562 15.381106 -0.932856
v -0.813351 15.258316 -0.961068
v -0.887209 15.182427 -0.887209
v -1.295161 15.258316 -1.147444
v -1.266950 15.381106 -1.175656
v -1.175656 15.381106 -1.266950
v -1.147444 15.258316 -1.295161
v -1.221303 15.182427 -1.221303
v 0.854203 15.890216 0.706486
v 0.782579 15.996555 0.691285
v 0.691285 15.996555 0.782579
v 0.706486 15.890216 0.854203
v 0.807176 15.824494 0.807176
v 1.143537 16.126455 0.995820
v 1.071913 16.232796 0.980618
v 0.980618 16.232796 1.071913
v 0.995820 16.126455 1.143537
v 1.096509 16.060734 1.096509
v 0.538246 16.361891 0.390529
v 0.434841 16.423286 0.343547
v 0.343547 16.423286 0.434841
v 0.390529 16.361891 0.538246
v 0.510860 16.323948 0.510860
v 0.705293 16.771070 0.557576
v 0.601888 16.832466 0.510594
v 0.510594 16.832466 0.601888
v 0.557576 16.771070 0.705293
v 0.677907 16.733126 0.677907
v -0.682488 15.948999 -0.830205
v -0.754113 15.842659 -0.845407
v -0.845407 15.842659 -0.754113
v -0.830205 15.948999 -0.682488
v -0.729516 16.014721 -0.729516
v -0.971822 16.185240 -1.119539
v -1.043446 16.078899 -1.134740
v -1.134740 16.078899 -1.043446
v -1.119539 16.185240 -0.971822
v -1.018849 16.250961 -1.018849
v 0.656743 16.361891 -0.104452
v 0.550403 16.423286 -0.064555
v 0.550403 16.423286 0.064555
v 0.656743 16.361891 0.104452
v 0.722465 16.323948 0.000000
v 0.892983 16.771070 -0.104452
v 0.786643 16.832466 -0.064555
v 0.786643 16.832466 0.064555
v 0.892983 16.771070 0.104452
v 0.958705 16.733126 0.000000
v -0.706486 14.694295 -0.854203
v -0.691285 14.587955 -0.782579
v -0.782579 14.587955 -0.691285
v -0.854203 14.694295 -0.706486
v -0.807176 14.760016 -0.807176
v -0.995820 14.458055 -1.143537
v -0.980618 14.351715 -1.071913
v -1.071913 14.351715 -0.980618
v -1.143537 14.458055 -0.995820
v -1.096509 14.523777 -1.096509
v -0.390529 14.222619 -0.538246
v -0.343547 14.161224 -0.434841
v -0.434841 14.161224 -0.343547
v -0.538246 14.222619 -0.390529
v -0.510860 14.260564 -0.510860
v -0.557576 13.813440 -0.705293
v -0.510594 13.752045 -0.601888
v -0.601888 13.752045 -0.510594
v -0.705293 13.813440 -0.557576
v -0.677907 13.851384 -0.677907
v 0.033938 16.546957 -0.104452
v -0.088852 16.546957 -0.064555
v -0.088852 16.546957 0.064555
v 0.033938 16.546957 0.104452
v 0.109827 16.546957 0.000000
v 0.033938 17.019438 -0.104452
v -0.088852 17.019438 -0.064555
v -0.088852 17.019438 0.064555
v 0.033938 17.019438 0.104452
v 0.109827 17.019438 0.000000
v 0.496680 14.188681 0.348963
v 0.543662 14.250076 0.452368
v 0.452368 14.250076 0.543662
v 0.348963 14.188681 0.496680
v 0.376349 14.150737 0.376349
v 0.663727 13.779502 0.516010
v 0.710709 13.840897 0.619415
v 0.619415 13.840897 0.710709
v 0.516010 13.779502 0.663727
v 0.543396 13.741557 0.543396
v 0.830205 14.635511 0.682488
v 0.845407 14.741852 0.754113
v 0.754113 14.741852 0.845407
v 0.682488 14.635511 0.830205
v 0.729516 14.569790 0.729516
v 1.119539 14.399272 0.971822
v 1.134740 14.505611 1.043446
v 1.043446 14.505611 1.134740
v 0.971822 14.399272 1.119539
v 1.018849 14.333550 1.018849
v 0.961068 15.258316 0.813351
v 0.932856 15.381106 0.841562
v 0.841562 15.381106 0.932856
v 0.813351 15.258316 0.961068
v 0.887209 15.182427 0.887209
v 1.295161 15.258316 1.147444
v 1.266950 15.381106 1.175656
v 1.175656 15.381106 1.266950
v 1.147444 15.258316 1.295161
v 1.221303 15.182427 1.221303
v 0.104452 15.258316 1.254703
v 0.064555 15.381106 1.254703
v -0.064555 15.381106 1.254703
v -0.104452 15.258316 1.254703
v 0.000000 15.182427 1.254703
v 0.104452 15.258316 1.727183
v 0.064555 15.381106 1.727183
v -0.064555 15.381106 1.727183
v -0.104452 15.258316 1.727183
v 0.000000 15.182427 1.727183
v -0.813351 15.258316 0.961068
v -0.841562 15.381106 0.932856
v -0.932856 15.381106 0.841562
v -0.961068 15.258316 0.813351
v -0.887209 15.182427 0.887209
v -1.147444 15.258316 1.295161
v -1.175656 15.381106 1.266950
v -1.266950 15.381106 1.175656
v -1.295161 15.258316 1.147444
v -1.221303 15.182427 1.221303
v -1.254703 15.258316 0.104452
v -1.254703 15.381106 0.064555
v -1.254703 15.381106 -0.064555
v -1.254703 15.258316 -0.104452
v -1.254703 15.182427 0.000000
v -1.727183 15.258316 0.104452
v -1.727183 15.381106 0.064555
v -1.727183 15.381106 -0.064555
v -1.727183 15.258316 -0.104452
v -1.727183 15.182427 0.000000
v 1.103574 15.890216 -0.104452
v 1.042179 15.996555 -0.064555
v 1.042179 15.996555 0.064555
v 1.103574 15.890216 0.104452
v 1.141519 15.824494 0.000000
v 1.512754 16.126455 -0.104452
v 1.451358 16.232796 -0.064555
v 1.451358 16.232796 0.064555
v 1.512754 16.126455 0.104452
v 1.550698 16.060734 0.000000
v -0.104452 15.258316 -1.254703
v -0.064555 15.381106 -1.254703
v 0.064555 15.381106 -1.254703
v 0.104452 15.258316 -1.254703
v -0.000000 15.182427 -1.254703
v -0.104452 15.258316 -1.727183
v -0.064555 15.381106 -1.727183
v 0.064555 15.381106 -1.727183
v 0.104452 15.258316 -1.727183
v -0.000000 15.182427 -1.727183
v 1.254703 15.258316 -0.104452
v 1.254703 15.381106 -0.064555
v 1.254703 15.381106 0.064555
v 1.254703 15.258316 0.104452
v 1.254703 15.182427 0.000000
v 1.727183 15.258316 -0.104452
v 1.727183 15.381106 -0.064555
v 1.727183 15.381106 0.064555
v 1.727183 15.258316 0.104452
v 1.727183 15.182427 0.000000
v -0.093017 -0.000000 -0.005473
v 0.093017 -0.000000 -0.005473
v -0.093017 6.997253 -0.005474
v 0.093017 6.997253 -0.005473
v -0.093017 13.994507 -0.005474
v 0.093017 13.994507 -0.005474
v -0.005319 -0.000000 0.093017
v -0.005319 -0.000000 -0.093017
v -0.005320 6.997253 0.093017
v -0.005319 6.997253 -0.093017
v -0.005321 13.994507 0.093017
v -0.005321 13.994507 -0.093017
vt 0.142134 0.980334
vt 0.142145 0.688702
vt 0.134392 0.688702
vt 0.134418 0.980334
vt 0.134392 0.980335
vt 0.142145 0.688702
vt 0.134392 0.688702
vt 0.142145 0.980335
vt 0.142145 0.688702
vt 0.134392 0.688702
vt 0.134392 0.980335
vt 0.142145 0.980335
vt 0.134392 0.688702
vt 0.134418 0.980334
vt 0.142134 0.980334
vt 0.142145 0.688702
vt 0.123929 0.864834
vt 0.122912 0.874579
vt 0.139383 0.880887
vt 0.141347 0.862062
vt 0.117159 0.882510
vt 0.128270 0.896209
vt 0.108212 0.886502
vt 0.110985 0.903921
vt 0.098467 0.885486
vt 0.092159 0.901957
vt 0.090536 0.879733
vt 0.076838 0.890844
vt 0.086544 0.870786
vt 0.069126 0.873559
vt 0.087561 0.861041
vt 0.071089 0.854733
vt 0.093313 0.853110
vt 0.082203 0.839412
vt 0.102261 0.849118
vt 0.099488 0.831700
vt 0.112005 0.850134
vt 0.118313 0.833663
vt 0.119936 0.855887
vt 0.133635 0.844776
vt 0.153527 0.886304
vt 0.156304 0.859681
vt 0.137811 0.907972
vt 0.113366 0.918879
vt 0.086743 0.916102
vt 0.065075 0.900385
vt 0.054168 0.875940
vt 0.056945 0.849317
vt 0.072662 0.827649
vt 0.097107 0.816742
vt 0.123730 0.819520
vt 0.145398 0.835236
vt 0.164381 0.890461
vt 0.167782 0.857854
vt 0.145132 0.916999
vt 0.115193 0.930357
vt 0.082586 0.926955
vt 0.056049 0.907706
vt 0.042691 0.877768
vt 0.046092 0.845161
vt 0.065341 0.818623
vt 0.095280 0.805266
vt 0.127886 0.808667
vt 0.154424 0.827915
vt 0.171203 0.893074
vt 0.174997 0.856706
vt 0.149734 0.922673
vt 0.116342 0.937572
vt 0.079974 0.933779
vt 0.050375 0.912309
vt 0.035476 0.878917
vt 0.039269 0.842549
vt 0.060739 0.812950
vt 0.094131 0.798051
vt 0.130499 0.801845
vt 0.160098 0.823314
vt 0.173530 0.893966
vt 0.177458 0.856315
vt 0.151304 0.924609
vt 0.116733 0.940033
vt 0.079082 0.936106
vt 0.048439 0.913879
vt 0.033015 0.879309
vt 0.036942 0.841658
vt 0.059169 0.811015
vt 0.093739 0.795591
vt 0.131390 0.799518
vt 0.162033 0.821745
vt 0.171203 0.893075
vt 0.174997 0.856707
vt 0.149734 0.922674
vt 0.116342 0.937573
vt 0.079974 0.933779
vt 0.050375 0.912310
vt 0.035476 0.878918
vt 0.039269 0.842550
vt 0.060739 0.812951
vt 0.094131 0.798052
vt 0.130499 0.801846
vt 0.160098 0.823315
vt 0.164381 0.890463
vt 0.167782 0.857856
vt 0.145132 0.917001
vt 0.115193 0.930359
vt 0.082586 0.926957
vt 0.056049 0.907708
vt 0.042691 0.877770
vt 0.046092 0.845163
vt 0.065341 0.818625
vt 0.095280 0.805268
vt 0.127886 0.808669
vt 0.154424 0.827917
vt 0.153527 0.886307
vt 0.156304 0.859684
vt 0.137811 0.907975
vt 0.113366 0.918882
vt 0.086743 0.916104
vt 0.065075 0.900388
vt 0.054168 0.875943
vt 0.056945 0.849320
vt 0.072662 0.827652
vt 0.097107 0.816745
vt 0.123730 0.819522
vt 0.145398 0.835239
vt 0.139383 0.880891
vt 0.141347 0.862065
vt 0.128270 0.896212
vt 0.110985 0.903924
vt 0.092159 0.901961
vt 0.076838 0.890847
vt 0.069126 0.873562
vt 0.071089 0.854737
vt 0.082203 0.839415
vt 0.099488 0.831703
vt 0.118313 0.833667
vt 0.133635 0.844780
vt 0.122912 0.874583
vt 0.123929 0.864838
vt 0.117159 0.882514
vt 0.108212 0.886506
vt 0.098467 0.885490
vt 0.090536 0.879737
vt 0.086544 0.870790
vt 0.087561 0.861045
vt 0.093313 0.853114
vt 0.102261 0.849122
vt 0.112005 0.850138
vt 0.119936 0.855891
vt 0.105236 0.867810
vt 0.105236 0.867814
vt 0.162937 0.879629
vt 0.163146 0.877626
vt 0.186871 0.880100
vt 0.186662 0.882104
vt 0.163822 0.871142
vt 0.187547 0.873617
vt 0.164031 0.869139
vt 0.187756 0.871614
vt 0.163484 0.874384
vt 0.187209 0.876858
vt 0.070558 0.822548
vt 0.067041 0.821410
vt 0.054028 0.805366
vt 0.057545 0.806504
vt 0.061978 0.825516
vt 0.048965 0.809472
vt 0.062367 0.829192
vt 0.049353 0.813148
vt 0.067669 0.827358
vt 0.054656 0.811313
vt 0.085559 0.841042
vt 0.080612 0.838142
vt 0.073099 0.828878
vt 0.078046 0.831779
vt 0.075550 0.842248
vt 0.068037 0.832984
vt 0.077367 0.847686
vt 0.069854 0.838423
vt 0.083553 0.846941
vt 0.076040 0.837678
vt 0.125462 0.890240
vt 0.120516 0.887339
vt 0.128029 0.896602
vt 0.132975 0.899503
vt 0.115453 0.891445
vt 0.122967 0.900708
vt 0.117271 0.896884
vt 0.124784 0.906146
vt 0.123457 0.896139
vt 0.130970 0.905401
vt 0.139673 0.907761
vt 0.136156 0.906623
vt 0.149169 0.922666
vt 0.152686 0.923805
vt 0.131094 0.910728
vt 0.144107 0.926772
vt 0.131482 0.914405
vt 0.144495 0.930449
vt 0.136784 0.912571
vt 0.149797 0.928615
vt 0.138594 0.906432
vt 0.138982 0.910108
vt 0.151995 0.926153
vt 0.151607 0.922476
vt 0.133919 0.914214
vt 0.146932 0.930259
vt 0.130402 0.913076
vt 0.143416 0.929120
vt 0.133291 0.908266
vt 0.146304 0.924311
vt 0.069478 0.821219
vt 0.069867 0.824896
vt 0.056854 0.808852
vt 0.056465 0.805175
vt 0.064804 0.829002
vt 0.051791 0.812958
vt 0.061287 0.827863
vt 0.048274 0.811819
vt 0.064176 0.823053
vt 0.051163 0.807009
vt 0.153644 0.878659
vt 0.156936 0.876977
vt 0.177482 0.879120
vt 0.174191 0.880801
vt 0.157612 0.870494
vt 0.178159 0.872637
vt 0.154738 0.868169
vt 0.175285 0.870312
vt 0.152286 0.873215
vt 0.172832 0.875358
vt 0.129959 0.876187
vt 0.135508 0.874741
vt 0.147370 0.875978
vt 0.141822 0.877424
vt 0.136184 0.868258
vt 0.148047 0.869495
vt 0.131053 0.865698
vt 0.142916 0.866934
vt 0.127206 0.870598
vt 0.139069 0.871835
vt 0.123593 0.887938
vt 0.125410 0.893376
vt 0.132923 0.902640
vt 0.131106 0.897202
vt 0.120348 0.897482
vt 0.127861 0.906746
vt 0.115402 0.894582
vt 0.122915 0.903845
vt 0.117407 0.888683
vt 0.124920 0.897946
vt 0.066955 0.869616
vt 0.072504 0.868169
vt 0.060641 0.866931
vt 0.055092 0.868378
vt 0.073180 0.861686
vt 0.061317 0.860448
vt 0.068049 0.859126
vt 0.056187 0.857888
vt 0.064202 0.864027
vt 0.052339 0.862789
vt 0.044518 0.867276
vt 0.047810 0.865594
vt 0.027263 0.863451
vt 0.023971 0.865133
vt 0.048486 0.859111
vt 0.027939 0.856967
vt 0.045612 0.856786
vt 0.025065 0.854642
vt 0.043160 0.861832
vt 0.022613 0.859689
vt 0.083689 0.838740
vt 0.085507 0.844179
vt 0.077994 0.834916
vt 0.076176 0.829478
vt 0.080444 0.848285
vt 0.072931 0.839022
vt 0.075498 0.845384
vt 0.067985 0.836122
vt 0.077503 0.839485
vt 0.069990 0.830223
vt 0.046222 0.867455
vt 0.043348 0.865130
vt 0.022801 0.862987
vt 0.025675 0.865313
vt 0.044024 0.858647
vt 0.023478 0.856504
vt 0.047316 0.856965
vt 0.026770 0.854823
vt 0.048674 0.862409
vt 0.028128 0.860266
vt 0.132911 0.876498
vt 0.127780 0.873938
vt 0.139643 0.875176
vt 0.144773 0.877736
vt 0.128456 0.867455
vt 0.140319 0.868693
vt 0.134005 0.866008
vt 0.145868 0.867246
vt 0.136758 0.871598
vt 0.148621 0.872835
vt 0.155348 0.878838
vt 0.152474 0.876513
vt 0.173021 0.878657
vt 0.175895 0.880982
vt 0.153150 0.870030
vt 0.173697 0.872174
vt 0.156442 0.868348
vt 0.176989 0.870492
vt 0.157801 0.873792
vt 0.178347 0.875935
vt 0.145743 0.837889
vt 0.146881 0.834372
vt 0.162926 0.821359
vt 0.161787 0.824875
vt 0.142775 0.829310
vt 0.158819 0.816296
vt 0.139099 0.829698
vt 0.155143 0.816684
vt 0.140933 0.835000
vt 0.156977 0.821986
vt 0.127248 0.852889
vt 0.130149 0.847943
vt 0.139412 0.840429
vt 0.136511 0.845375
vt 0.126043 0.842880
vt 0.135306 0.835367
vt 0.120605 0.844698
vt 0.129868 0.837184
vt 0.121349 0.850884
vt 0.130612 0.843370
vt 0.069907 0.869927
vt 0.064776 0.867366
vt 0.052913 0.866129
vt 0.058044 0.868690
vt 0.065452 0.860883
vt 0.053590 0.859646
vt 0.071001 0.859437
vt 0.059139 0.858200
vt 0.073754 0.865026
vt 0.061892 0.863789
vt 0.078051 0.892793
vt 0.080952 0.887846
vt 0.071688 0.895359
vt 0.068788 0.900305
vt 0.076845 0.882784
vt 0.067582 0.890297
vt 0.071407 0.884602
vt 0.062144 0.892114
vt 0.072152 0.890787
vt 0.062889 0.898300
vt 0.060530 0.907004
vt 0.061669 0.903487
vt 0.045625 0.916500
vt 0.044486 0.920017
vt 0.057563 0.898425
vt 0.041519 0.911437
vt 0.053887 0.898813
vt 0.037842 0.911826
vt 0.055721 0.904115
vt 0.039676 0.917128
vt 0.061861 0.905926
vt 0.058185 0.906314
vt 0.042141 0.919328
vt 0.045817 0.918940
vt 0.054079 0.901252
vt 0.038035 0.914265
vt 0.055217 0.897735
vt 0.039173 0.910749
vt 0.060027 0.900624
vt 0.043983 0.913638
vt 0.080356 0.890926
vt 0.074917 0.892744
vt 0.065654 0.900257
vt 0.071093 0.898440
vt 0.070811 0.887681
vt 0.061548 0.895195
vt 0.073712 0.882735
vt 0.064449 0.890249
vt 0.079611 0.884740
vt 0.070348 0.892254
vt 0.102593 0.898387
vt 0.100033 0.903517
vt 0.098795 0.915381
vt 0.101356 0.910250
vt 0.093550 0.902841
vt 0.092312 0.914704
vt 0.092103 0.897292
vt 0.090866 0.909156
vt 0.097692 0.894539
vt 0.096455 0.906403
vt 0.088663 0.930269
vt 0.090667 0.930478
vt 0.088192 0.954203
vt 0.086189 0.953994
vt 0.097150 0.931154
vt 0.094675 0.954880
vt 0.099153 0.931363
vt 0.096679 0.955088
vt 0.093908 0.930816
vt 0.091434 0.954541
vt 0.111505 0.812945
vt 0.109180 0.815819
vt 0.111324 0.795273
vt 0.113649 0.792398
vt 0.102697 0.815143
vt 0.104840 0.794596
vt 0.101015 0.811851
vt 0.103159 0.791304
vt 0.106459 0.810492
vt 0.108602 0.789946
vt 0.109165 0.835383
vt 0.106605 0.840514
vt 0.107842 0.828652
vt 0.110402 0.823521
vt 0.100121 0.839837
vt 0.101359 0.827975
vt 0.098675 0.834288
vt 0.099912 0.822426
vt 0.104264 0.831535
vt 0.105502 0.819673
vt 0.100123 0.922071
vt 0.097798 0.924945
vt 0.095654 0.945492
vt 0.097979 0.942618
vt 0.091314 0.924268
vt 0.089171 0.944816
vt 0.089633 0.920977
vt 0.087489 0.941524
vt 0.095076 0.919619
vt 0.092933 0.940166
vt 0.129553 0.851023
vt 0.124115 0.852840
vt 0.133378 0.845328
vt 0.138816 0.843510
vt 0.120009 0.847778
vt 0.129272 0.840265
vt 0.122909 0.842831
vt 0.132173 0.835319
vt 0.128808 0.844837
vt 0.138071 0.837324
vt 0.099945 0.923773
vt 0.098263 0.920481
vt 0.096120 0.941028
vt 0.097802 0.944320
vt 0.091780 0.919805
vt 0.089637 0.940352
vt 0.089455 0.922679
vt 0.087312 0.943226
vt 0.094501 0.925132
vt 0.092358 0.945678
vt 0.102285 0.901336
vt 0.100839 0.895787
vt 0.099601 0.907649
vt 0.101048 0.913198
vt 0.094356 0.895110
vt 0.093118 0.906973
vt 0.091795 0.900241
vt 0.090558 0.912103
vt 0.096696 0.904089
vt 0.095459 0.915951
vt 0.105133 0.870830
vt 0.099049 0.873171
vt 0.099049 0.873171
vt 0.105133 0.870831
vt 0.094943 0.868108
vt 0.094943 0.868109
vt 0.098489 0.862639
vt 0.098489 0.862639
vt 0.104787 0.864321
vt 0.104787 0.864321
vt 0.108857 0.838332
vt 0.107411 0.832783
vt 0.108648 0.820920
vt 0.110094 0.826468
vt 0.100927 0.832107
vt 0.102165 0.820243
vt 0.098367 0.837237
vt 0.099604 0.825374
vt 0.103268 0.841085
vt 0.104505 0.829221
vt 0.111328 0.814647
vt 0.109646 0.811356
vt 0.111789 0.790809
vt 0.113471 0.794100
vt 0.103163 0.810679
vt 0.105306 0.790132
vt 0.100838 0.813553
vt 0.102981 0.793006
vt 0.105884 0.816005
vt 0.108027 0.795458
vt 0.112297 0.805355
vt 0.110294 0.805146
vt 0.112768 0.781421
vt 0.114772 0.781630
vt 0.103810 0.804470
vt 0.106285 0.780745
vt 0.101807 0.804261
vt 0.104282 0.780536
vt 0.107052 0.804808
vt 0.109527 0.781083
vt 0.064672 0.815293
vt 0.063108 0.816562
vt 0.048081 0.798035
vt 0.049646 0.796766
vt 0.058045 0.820668
vt 0.043019 0.802142
vt 0.056481 0.821936
vt 0.041455 0.803410
vt 0.060577 0.818614
vt 0.045550 0.800088
vt 0.038023 0.855995
vt 0.037814 0.857999
vt 0.014089 0.855524
vt 0.014298 0.853520
vt 0.037138 0.864482
vt 0.013413 0.862007
vt 0.036929 0.866485
vt 0.013204 0.864010
vt 0.037476 0.861240
vt 0.013751 0.858765
vt 0.047961 0.903620
vt 0.049229 0.905185
vt 0.030703 0.920211
vt 0.029434 0.918646
vt 0.053336 0.910247
vt 0.034809 0.925273
vt 0.054604 0.911811
vt 0.036078 0.926838
vt 0.051283 0.907715
vt 0.032756 0.922742
vt 0.147074 0.836811
vt 0.143397 0.837200
vt 0.159442 0.824187
vt 0.163118 0.823798
vt 0.139291 0.832137
vt 0.155336 0.819124
vt 0.140430 0.828620
vt 0.156474 0.815607
vt 0.145240 0.831509
vt 0.161284 0.818496
vt 0.136288 0.920331
vt 0.137852 0.919063
vt 0.152879 0.937589
vt 0.151314 0.938858
vt 0.142915 0.914957
vt 0.157941 0.933483
vt 0.144479 0.913688
vt 0.159506 0.932214
vt 0.140384 0.917009
vt 0.155410 0.935536
vt 0.153000 0.832004
vt 0.151731 0.830440
vt 0.170257 0.815413
vt 0.171526 0.816978
vt 0.147625 0.825377
vt 0.166151 0.810351
vt 0.146356 0.823813
vt 0.164882 0.808786
vt 0.149678 0.827908
vt 0.168204 0.812882
vt 0.142145 0.688702
vt 0.134392 0.688702
vt 0.134392 0.980335
vt 0.142145 0.980335
vt 0.134392 0.688702
vt 0.134418 0.980334
vt 0.142134 0.980334
vt 0.142145 0.688702
vt 0.142145 0.688702
vt 0.134392 0.688702
vt 0.134392 0.980335
vt 0.142145 0.980335
vt 0.134392 0.688702
vt 0.134418 0.980334
vt 0.142134 0.980334
vt 0.142145 0.688702
vn 0.106893 -0.002842 -0.994267
vn -0.106890 -0.002842 -0.994267
vn -0.106890 -0.000000 -0.994271
vn 0.106893 -0.000000 -0.994271
vn -0.106890 0.002842 -0.994267
vn 0.106893 0.002842 -0.994267
vn -0.994267 -0.002842 -0.106893
vn -0.994267 -0.002842 0.106890
vn -0.994271 -0.000000 0.106890
vn -0.994271 -0.000000 -0.106893
vn -0.994267 0.002842 0.106890
vn -0.994267 0.002842 -0.106893
vn 0.289762 -0.942365 -0.167292
vn 0.167294 -0.942365 -0.289761
vn 0.270244 -0.841352 -0.468076
vn 0.468076 -0.841352 -0.270243
vn 0.000000 -0.942365 -0.334586
vn 0.000000 -0.841351 -0.540489
vn -0.167294 -0.942365 -0.289761
vn -0.270244 -0.841351 -0.468077
vn -0.289762 -0.942365 -0.167292
vn -0.468076 -0.841352 -0.270244
vn -0.334588 -0.942365 0.000000
vn -0.540488 -0.841352 -0.000000
vn -0.289762 -0.942365 0.167292
vn -0.468076 -0.841352 0.270243
vn -0.167294 -0.942365 0.289761
vn -0.270244 -0.841352 0.468076
vn 0.000000 -0.942365 0.334586
vn -0.000000 -0.841351 0.540489
vn 0.167294 -0.942365 0.289761
vn 0.270244 -0.841351 0.468077
vn 0.289762 -0.942365 0.167292
vn 0.468076 -0.841352 0.270244
vn 0.334588 -0.942365 0.000000
vn 0.540488 -0.841352 0.000000
vn 0.364805 -0.683862 -0.631862
vn 0.631862 -0.683862 -0.364806
vn 0.000000 -0.683862 -0.729611
vn -0.364805 -0.683862 -0.631862
vn -0.631862 -0.683862 -0.364806
vn -0.729611 -0.683862 -0.000001
vn -0.631862 -0.683862 0.364806
vn -0.364805 -0.683862 0.631862
vn 0.000000 -0.683862 0.729611
vn 0.364805 -0.683862 0.631862
vn 0.631862 -0.683862 0.364806
vn 0.729611 -0.683862 0.000001
vn 0.438134 -0.481821 -0.758872
vn 0.758872 -0.481822 -0.438135
vn 0.000000 -0.481821 -0.876269
vn -0.438135 -0.481822 -0.758872
vn -0.758872 -0.481822 -0.438134
vn -0.876269 -0.481822 -0.000000
vn -0.758872 -0.481822 0.438135
vn -0.438134 -0.481821 0.758872
vn -0.000000 -0.481821 0.876269
vn 0.438135 -0.481822 0.758872
vn 0.758872 -0.481822 0.438134
vn 0.876269 -0.481822 0.000000
vn 0.484273 -0.248837 -0.838785
vn 0.838785 -0.248837 -0.484272
vn 0.000000 -0.248837 -0.968545
vn -0.484272 -0.248837 -0.838785
vn -0.838785 -0.248837 -0.484273
vn -0.968545 -0.248837 0.000000
vn -0.838785 -0.248837 0.484272
vn -0.484273 -0.248837 0.838785
vn -0.000000 -0.248837 0.968545
vn 0.484272 -0.248837 0.838785
vn 0.838785 -0.248837 0.484273
vn 0.968545 -0.248837 -0.000000
vn 0.500001 0.000000 -0.866025
vn 0.866026 0.000000 -0.500000
vn 0.000000 0.000000 -1.000000
vn -0.500000 0.000000 -0.866026
vn -0.866025 0.000000 -0.500000
vn -1.000000 -0.000000 0.000000
vn -0.866026 0.000000 0.500000
vn -0.500001 0.000000 0.866025
vn -0.000000 0.000000 1.000000
vn 0.500000 0.000000 0.866026
vn 0.866025 0.000000 0.500000
vn 1.000000 -0.000000 -0.000000
vn 0.484273 0.248837 -0.838785
vn 0.838785 0.248837 -0.484273
vn -0.000000 0.248837 -0.968546
vn -0.484273 0.248837 -0.838785
vn -0.838785 0.248837 -0.484273
vn -0.968545 0.248837 0.000000
vn -0.838785 0.248837 0.484273
vn -0.484273 0.248837 0.838785
vn 0.000000 0.248837 0.968546
vn 0.484273 0.248837 0.838785
vn 0.838785 0.248837 0.484273
vn 0.968545 0.248837 -0.000000
vn 0.438134 0.481821 -0.758872
vn 0.758871 0.481822 -0.438135
vn -0.000000 0.481821 -0.876270
vn -0.438135 0.481822 -0.758871
vn -0.758872 0.481822 -0.438134
vn -0.876269 0.481822 0.000000
vn -0.758871 0.481822 0.438135
vn -0.438134 0.481821 0.758872
vn 0.000000 0.481821 0.876270
vn 0.438135 0.481822 0.758871
vn 0.758872 0.481822 0.438134
vn 0.876269 0.481822 -0.000000
vn 0.364806 0.683862 -0.631862
vn 0.631862 0.683862 -0.364805
vn 0.000000 0.683862 -0.729612
vn -0.364806 0.683862 -0.631863
vn -0.631862 0.683862 -0.364806
vn -0.729612 0.683862 -0.000000
vn -0.631862 0.683862 0.364805
vn -0.364806 0.683862 0.631862
vn -0.000000 0.683862 0.729612
vn 0.364806 0.683862 0.631863
vn 0.631862 0.683862 0.364806
vn 0.729612 0.683862 0.000000
vn 0.270244 0.841352 -0.468076
vn 0.468076 0.841352 -0.270243
vn 0.000000 0.841352 -0.540487
vn -0.270244 0.841352 -0.468077
vn -0.468076 0.841352 -0.270244
vn -0.540488 0.841352 0.000000
vn -0.468076 0.841352 0.270243
vn -0.270244 0.841352 0.468076
vn 0.000000 0.841352 0.540487
vn 0.270244 0.841352 0.468077
vn 0.468076 0.841352 0.270244
vn 0.540488 0.841352 -0.000000
vn 0.167293 0.942366 -0.289757
vn 0.289759 0.942366 -0.167291
vn 0.000000 0.942366 -0.334583
vn -0.167293 0.942366 -0.289757
vn -0.289759 0.942366 -0.167291
vn -0.334585 0.942366 0.000000
vn -0.289759 0.942366 0.167291
vn -0.167293 0.942366 0.289757
vn 0.000000 0.942366 0.334583
vn 0.167293 0.942366 0.289757
vn 0.289759 0.942366 0.167291
vn 0.334585 0.942366 -0.000000
vn 0.000000 -1.000000 -0.000000
vn 0.000000 1.000000 -0.000000
vn -0.672500 -0.309017 -0.672497
vn -0.415628 0.809018 -0.415625
vn -0.159653 0.763914 -0.625257
vn -0.402204 -0.291789 -0.867808
vn 0.415626 0.809019 0.415624
vn 0.625258 0.763914 0.159650
vn 0.672499 -0.309018 0.672497
vn 0.867809 -0.291790 0.402201
vn -0.000001 -1.000000 -0.000000
vn 0.232802 -0.944249 -0.232803
vn 0.951057 -0.267616 -0.154508
vn 0.587785 0.700629 0.404509
vn 0.555016 0.496951 0.667081
vn 0.898034 -0.417312 0.139230
vn -0.587785 0.700629 0.404509
vn -0.555016 0.496951 0.667081
vn -0.951057 -0.267616 -0.154507
vn -0.898034 -0.417312 0.139231
vn -0.000000 -0.866026 -0.499999
vn -0.000000 -0.982360 -0.186999
vn 0.951056 -0.154509 -0.267617
vn 0.587785 0.404509 0.700630
vn 0.555014 0.096832 0.826186
vn 0.898034 -0.431019 -0.088080
vn -0.587784 0.404509 0.700630
vn -0.555014 0.096832 0.826186
vn -0.951056 -0.154509 -0.267617
vn -0.898034 -0.431019 -0.088079
vn 0.000000 -0.500000 -0.866025
vn 0.000000 -0.757250 -0.653126
vn 0.951057 0.154508 -0.267617
vn 0.587784 -0.404509 0.700630
vn 0.555015 -0.667082 0.496951
vn 0.898034 -0.139230 -0.417314
vn -0.587784 -0.404509 0.700630
vn -0.555014 -0.667082 0.496951
vn -0.951057 0.154508 -0.267616
vn -0.898034 -0.139229 -0.417314
vn -0.000000 0.500000 -0.866025
vn -0.000000 0.186999 -0.982360
vn 0.951057 0.267616 -0.154507
vn 0.587785 -0.700629 0.404509
vn 0.555015 -0.826185 0.096831
vn 0.898034 0.088079 -0.431019
vn -0.587785 -0.700629 0.404509
vn -0.555015 -0.826185 0.096831
vn -0.951057 0.267616 -0.154507
vn -0.898034 0.088079 -0.431019
vn -0.000000 0.866026 -0.499999
vn -0.000000 0.653126 -0.757249
vn 0.951057 0.267615 0.154509
vn 0.587786 -0.700628 -0.404509
vn 0.555016 -0.496948 -0.667082
vn 0.898033 0.417313 -0.139233
vn -0.587786 -0.700628 -0.404508
vn -0.555016 -0.496949 -0.667082
vn -0.951057 0.267615 0.154509
vn -0.898033 0.417313 -0.139233
vn -0.000000 0.866024 0.500002
vn -0.000000 0.982360 0.186998
vn 0.951057 -0.267616 0.154506
vn 0.587785 0.700629 -0.404509
vn 0.555016 0.826186 -0.096827
vn 0.898032 -0.088079 0.431022
vn -0.587785 0.700629 -0.404509
vn -0.555015 0.826186 -0.096827
vn -0.951057 -0.267616 0.154506
vn -0.898032 -0.088079 0.431022
vn -0.000000 -0.866027 0.499997
vn -0.000000 -0.653125 0.757250
vn -0.781752 -0.267617 -0.563246
vn -0.129595 0.700629 -0.701659
vn 0.079243 0.496951 -0.864153
vn -0.536555 -0.417314 -0.733456
vn 0.701657 0.700630 0.129596
vn 0.864153 0.496951 -0.079240
vn 0.563246 -0.267618 0.781751
vn 0.733457 -0.417314 0.536554
vn -0.353553 -0.866027 0.353551
vn -0.132228 -0.982360 0.132228
vn -0.861732 -0.154509 -0.483266
vn 0.079794 0.404508 -0.911047
vn 0.191746 0.096832 -0.976656
vn -0.697287 -0.431018 -0.572726
vn 0.911047 0.404509 -0.079792
vn 0.976656 0.096832 -0.191748
vn 0.483265 -0.154509 0.861732
vn 0.572725 -0.431020 0.697286
vn -0.612373 -0.500001 0.612372
vn -0.461831 -0.757250 0.461828
vn 0.951057 0.154508 0.267616
vn 0.587785 -0.404508 -0.700629
vn 0.555016 -0.096831 -0.826184
vn 0.898034 0.431020 0.088079
vn -0.587785 -0.404509 -0.700629
vn -0.555016 -0.096831 -0.826184
vn -0.951057 0.154508 0.267616
vn -0.898034 0.431020 0.088078
vn 0.000000 0.499999 0.866026
vn -0.000000 0.757248 0.653127
vn -0.861732 0.154509 -0.483264
vn 0.079794 -0.404508 -0.911047
vn -0.041056 -0.667081 -0.743853
vn -0.930092 -0.139229 -0.339918
vn 0.911046 -0.404509 -0.079795
vn 0.743853 -0.667081 0.041058
vn 0.483266 0.154508 0.861731
vn 0.339921 -0.139229 0.930091
vn -0.612372 0.500000 0.612373
vn -0.694632 0.186998 0.694635
vn -0.781752 0.267616 -0.563246
vn -0.129596 -0.700628 -0.701659
vn -0.323984 -0.826185 -0.460926
vn -0.939782 0.088080 -0.330230
vn 0.701658 -0.700629 0.129597
vn 0.460925 -0.826185 0.323986
vn 0.563245 0.267616 0.781753
vn 0.330229 0.088080 0.939782
vn -0.353553 0.866025 0.353554
vn -0.535455 0.653126 0.535458
vn 0.951057 -0.154508 0.267616
vn 0.587786 0.404508 -0.700629
vn 0.555015 0.667081 -0.496951
vn 0.898034 0.139232 0.417313
vn -0.587786 0.404508 -0.700629
vn -0.555015 0.667081 -0.496951
vn -0.951057 -0.154508 0.267616
vn -0.898034 0.139232 0.417313
vn -0.000000 -0.499999 0.866026
vn 0.000000 -0.186999 0.982360
vn -0.563246 0.267615 -0.781752
vn -0.701659 -0.700628 -0.129597
vn -0.864154 -0.496950 0.079241
vn -0.733457 0.417313 -0.536554
vn 0.129596 -0.700629 0.701658
vn -0.079242 -0.496950 0.864154
vn 0.781753 0.267616 0.563245
vn 0.536554 0.417314 0.733457
vn 0.353554 0.866025 -0.353554
vn 0.132228 0.982360 -0.132229
vn -0.483268 -0.154508 -0.861731
vn -0.911047 0.404508 0.079793
vn -0.743853 0.667081 -0.041057
vn -0.339921 0.139231 -0.930090
vn -0.079792 0.404508 0.911047
vn 0.041058 0.667081 0.743853
vn 0.861731 -0.154508 0.483266
vn 0.930091 0.139231 0.339920
vn 0.612372 -0.500001 -0.612372
vn 0.694634 -0.187001 -0.694633
vn -0.563247 -0.267617 -0.781751
vn -0.701660 0.700629 -0.129589
vn -0.460927 0.826185 -0.323982
vn -0.330229 -0.088080 -0.939782
vn 0.129597 0.700627 0.701660
vn 0.323986 0.826185 0.460924
vn 0.781752 -0.267616 0.563246
vn 0.939783 -0.088080 0.330227
vn 0.353553 -0.866027 -0.353551
vn 0.535455 -0.653126 -0.535457
vn -0.154507 -0.267616 -0.951057
vn 0.404509 0.700629 -0.587785
vn 0.667081 0.496951 -0.555016
vn 0.139230 -0.417311 -0.898035
vn 0.404508 0.700628 0.587787
vn 0.667080 0.496950 0.555017
vn -0.154508 -0.267616 0.951057
vn 0.139230 -0.417312 0.898034
vn -0.499999 -0.866026 -0.000004
vn -0.186999 -0.982360 -0.000004
vn -0.267615 -0.154508 -0.951057
vn 0.700629 0.404509 -0.587785
vn 0.826185 0.096832 -0.555015
vn -0.088078 -0.431017 -0.898035
vn 0.700630 0.404509 0.587784
vn 0.826186 0.096831 0.555014
vn -0.267618 -0.154510 0.951056
vn -0.088081 -0.431020 0.898033
vn -0.866025 -0.500000 -0.000000
vn -0.653126 -0.757249 -0.000000
vn -0.483268 0.154509 -0.861730
vn -0.911047 -0.404508 0.079794
vn -0.976655 -0.096833 0.191750
vn -0.572728 0.431020 -0.697284
vn -0.079794 -0.404510 0.911046
vn -0.191745 -0.096833 0.976656
vn 0.861733 0.154509 0.483263
vn 0.697287 0.431019 0.572724
vn 0.612371 0.500000 -0.612374
vn 0.461831 0.757249 -0.461829
vn -0.267616 0.154508 -0.951057
vn 0.700630 -0.404509 -0.587783
vn 0.496952 -0.667082 -0.555014
vn -0.417314 -0.139229 -0.898034
vn 0.700630 -0.404509 0.587785
vn 0.496951 -0.667082 0.555015
vn -0.267617 0.154509 0.951057
vn -0.417314 -0.139229 0.898034
vn -0.866025 0.500000 -0.000002
vn -0.982360 0.186999 -0.000002
vn -0.154508 0.267616 -0.951057
vn 0.404509 -0.700630 -0.587784
vn 0.096832 -0.826186 -0.555014
vn -0.431020 0.088079 -0.898033
vn 0.404508 -0.700628 0.587788
vn 0.096831 -0.826184 0.555017
vn -0.154507 0.267615 0.951057
vn -0.431018 0.088078 0.898034
vn -0.499999 0.866026 0.000000
vn -0.757250 0.653126 0.000000
vn 0.154509 0.267617 -0.951056
vn -0.404509 -0.700629 -0.587785
vn -0.667082 -0.496950 -0.555016
vn -0.139231 0.417315 -0.898033
vn -0.404510 -0.700630 0.587784
vn -0.667082 -0.496951 0.555015
vn 0.154507 0.267614 0.951057
vn -0.139232 0.417312 0.898034
vn 0.500001 0.866025 0.000003
vn 0.186999 0.982360 0.000003
vn 0.267615 0.154508 -0.951057
vn -0.700630 -0.404509 -0.587784
vn -0.826185 -0.096832 -0.555016
vn 0.088079 0.431020 -0.898033
vn -0.700631 -0.404509 0.587783
vn -0.826185 -0.096832 0.555015
vn 0.267616 0.154508 0.951057
vn 0.088079 0.431020 0.898033
vn 0.866025 0.500001 0.000000
vn 0.653126 0.757249 0.000000
vn 0.861733 0.154508 -0.483263
vn -0.079793 -0.404510 -0.911046
vn -0.191743 -0.096833 -0.976656
vn 0.697288 0.431018 -0.572724
vn -0.911047 -0.404508 -0.079795
vn -0.976655 -0.096833 -0.191749
vn -0.483269 0.154508 0.861730
vn -0.572728 0.431021 0.697283
vn 0.612372 0.500000 0.612373
vn 0.461831 0.757249 0.461829
vn -0.672499 -0.309018 0.672497
vn -0.415626 0.809019 0.415624
vn -0.625258 0.763914 0.159650
vn -0.867809 -0.291790 0.402201
vn 0.415628 0.809018 -0.415625
vn 0.159653 0.763914 -0.625257
vn 0.672500 -0.309017 -0.672497
vn 0.402204 -0.291790 -0.867808
vn 0.000000 -1.000000 -0.000000
vn -0.232803 -0.944249 -0.232803
vn 0.781752 -0.267615 -0.563246
vn 0.129596 0.700631 -0.701656
vn 0.323985 0.826188 -0.460920
vn 0.939783 -0.088079 -0.330227
vn -0.701658 0.700629 0.129593
vn -0.460925 0.826185 0.323985
vn -0.563247 -0.267617 0.781751
vn -0.330229 -0.088080 0.939782
vn 0.353553 -0.866027 0.353551
vn 0.535455 -0.653126 0.535457
vn 0.861732 -0.154508 -0.483265
vn -0.079791 0.404508 -0.911047
vn 0.041058 0.667082 -0.743852
vn 0.930092 0.139231 -0.339918
vn -0.911047 0.404508 -0.079794
vn -0.743853 0.667081 0.041057
vn -0.483267 -0.154508 0.861731
vn -0.339921 0.139230 0.930091
vn 0.612371 -0.500000 0.612374
vn 0.694631 -0.187001 0.694635
vn 0.781753 0.267616 -0.563245
vn 0.129596 -0.700629 -0.701658
vn -0.079241 -0.496949 -0.864154
vn 0.536554 0.417313 -0.733457
vn -0.701659 -0.700628 0.129597
vn -0.864154 -0.496950 -0.079242
vn -0.563245 0.267616 0.781752
vn -0.733457 0.417314 0.536554
vn 0.353553 0.866025 0.353555
vn 0.132228 0.982360 0.132229
vn 0.267617 -0.154509 -0.951056
vn -0.700629 0.404508 -0.587786
vn -0.496950 0.667082 -0.555016
vn 0.417316 0.139231 -0.898033
vn -0.700628 0.404508 0.587787
vn -0.496951 0.667081 0.555016
vn 0.267615 -0.154508 0.951057
vn 0.417314 0.139232 0.898033
vn 0.866025 -0.500001 0.000000
vn 0.982360 -0.187001 0.000000
vn 0.563245 0.267616 -0.781753
vn 0.701658 -0.700629 -0.129597
vn 0.460925 -0.826185 -0.323985
vn 0.330229 0.088079 -0.939783
vn -0.129595 -0.700628 0.701659
vn -0.323984 -0.826185 0.460927
vn -0.781752 0.267616 0.563246
vn -0.939782 0.088080 0.330230
vn -0.353553 0.866025 -0.353554
vn -0.535457 0.653125 -0.535456
vn 0.483265 0.154509 -0.861732
vn 0.911046 -0.404509 0.079793
vn 0.743852 -0.667082 -0.041059
vn 0.339919 -0.139229 -0.930092
vn 0.079793 -0.404508 0.911047
vn -0.041057 -0.667081 0.743853
vn -0.861732 0.154508 0.483265
vn -0.930092 -0.139229 0.339919
vn -0.612373 0.500001 -0.612371
vn -0.694634 0.186999 -0.694633
vn 0.309017 0.000000 -0.951057
vn -0.809016 0.000000 -0.587786
vn -0.763913 0.329233 -0.555016
vn 0.291788 0.329233 -0.898034
vn -0.809016 0.000000 0.587786
vn -0.763913 0.329233 0.555016
vn 0.309017 0.000000 0.951057
vn 0.291788 0.329233 0.898034
vn 1.000000 0.000000 0.000000
vn 0.944249 0.329233 0.000000
vn 0.483264 -0.154508 -0.861733
vn 0.911047 0.404509 0.079790
vn 0.976656 0.096832 0.191747
vn 0.572724 -0.431018 -0.697287
vn 0.079794 0.404509 0.911046
vn 0.191747 0.096832 0.976656
vn -0.861734 -0.154509 0.483262
vn -0.697288 -0.431019 0.572724
vn -0.612372 -0.499999 -0.612374
vn -0.461831 -0.757249 -0.461829
vn 0.563247 -0.267616 -0.781751
vn 0.701658 0.700628 -0.129598
vn 0.864153 0.496951 0.079240
vn 0.733459 -0.417312 -0.536553
vn -0.129597 0.700630 0.701657
vn 0.079241 0.496952 0.864153
vn -0.781753 -0.267616 0.563243
vn -0.536556 -0.417313 0.733455
vn -0.353553 -0.866027 -0.353550
vn -0.132228 -0.982361 -0.132225
vn 0.672499 -0.309018 -0.672497
vn 0.415626 0.809019 -0.415624
vn 0.625258 0.763914 -0.159650
vn 0.867809 -0.291790 -0.402201
vn -0.415628 0.809018 0.415625
vn -0.159653 0.763914 0.625257
vn -0.672500 -0.309017 0.672497
vn -0.402204 -0.291790 0.867808
vn -0.000000 -1.000000 0.000000
vn 0.232803 -0.944249 0.232803
vn 0.951056 -0.309018 0.000000
vn 0.587785 0.809017 0.000000
vn 0.555015 0.763914 0.329233
vn 0.898034 -0.291790 0.329233
vn -0.587785 0.809018 0.000000
vn -0.555015 0.763914 0.329233
vn -0.951056 -0.309017 0.000000
vn -0.898034 -0.291789 0.329233
vn 0.000000 -1.000000 0.000000
vn 0.000000 -0.944249 0.329232
vn 0.672500 -0.309017 0.672497
vn 0.415628 0.809018 0.415625
vn 0.159653 0.763914 0.625257
vn 0.402204 -0.291789 0.867808
vn -0.415626 0.809019 -0.415624
vn -0.625258 0.763914 -0.159650
vn -0.672499 -0.309018 -0.672497
vn -0.867809 -0.291790 -0.402201
vn 0.000001 -1.000000 0.000000
vn -0.232802 -0.944249 0.232803
vn 0.000000 -0.309017 0.951057
vn 0.000000 0.809018 0.587784
vn -0.329234 0.763914 0.555014
vn -0.329233 -0.291788 0.898034
vn 0.000000 0.809018 -0.587784
vn -0.329234 0.763914 -0.555014
vn 0.000000 -0.309017 -0.951057
vn -0.329233 -0.291788 -0.898034
vn 0.000000 -1.000000 0.000000
vn -0.329233 -0.944249 0.000000
vn 0.154508 -0.267616 -0.951057
vn -0.404509 0.700628 -0.587786
vn -0.096831 0.826185 -0.555016
vn 0.431019 -0.088079 -0.898034
vn -0.404509 0.700628 0.587786
vn -0.096831 0.826185 0.555016
vn 0.154508 -0.267616 0.951057
vn 0.431019 -0.088079 0.898034
vn 0.499999 -0.866026 0.000000
vn 0.757250 -0.653126 0.000000
vn -0.951056 -0.309018 -0.000000
vn -0.587785 0.809017 0.000000
vn -0.555015 0.763914 -0.329233
vn -0.898034 -0.291790 -0.329233
vn 0.587785 0.809018 0.000000
vn 0.555015 0.763914 -0.329233
vn 0.951056 -0.309017 0.000000
vn 0.898034 -0.291789 -0.329233
vn -0.000000 -1.000000 -0.000000
vn -0.000000 -0.944249 -0.329232
vn 0.000000 -0.309017 -0.951057
vn 0.000000 0.809018 -0.587784
vn 0.329234 0.763914 -0.555014
vn 0.329233 -0.291788 -0.898034
vn 0.000000 0.809018 0.587784
vn 0.329234 0.763914 0.555014
vn 0.000000 -0.309017 0.951057
vn 0.329233 -0.291788 0.898034
vn 0.000000 -1.000000 0.000000
vn 0.329233 -0.944249 0.000000
vn 0.999647 -0.026577 0.000001
vn -0.999647 -0.026577 -0.000001
vn -1.000000 0.000000 -0.000001
vn 1.000000 0.000000 0.000001
vn -0.999647 0.026577 -0.000002
vn 0.999647 0.026577 0.000001
vn 0.000001 -0.026577 -0.999647
vn -0.000002 -0.026577 0.999647
vn -0.000002 -0.000000 1.000000
vn 0.000001 0.000000 -1.000000
vn -0.000002 0.026577 0.999647
vn 0.000002 0.026577 -0.999647
vn -0.000001 0.000000 1.000000
vn -0.000001 0.000000 1.000000
vn -0.000001 0.000000 1.000000
vn -0.000001 0.000000 1.000000
vn -0.000001 0.000000 1.000000
vn -0.000001 0.000000 1.000000
vn -0.000001 0.000000 1.000000
vn -0.000001 0.000000 1.000000
vn 1.000000 0.000000 0.000001
vn 1.000000 0.000000 0.000001
vn 1.000000 0.000000 0.000001
vn 1.000000 0.000000 0.000001
vn 1.000000 0.000000 0.000001
vn 1.000000 0.000000 0.000001
vn 1.000000 0.000000 0.000001
vn 1.000000 0.000000 0.000001
s 1
g Mine_Geo
usemtl lambert5SG
f 558/561/1 557/562/2 559/563/3 560/564/4
f 559/565/3 561/566/5 562/567/6 560/568/4
s 2
f 564/569/7 563/570/8 565/571/9 566/572/10
f 565/573/9 567/574/11 568/575/12 566/576/10
s 3
f 13/17/13 14/18/14 26/19/15 25/20/16
f 14/18/14 15/21/17 27/22/18 26/19/15
f 15/21/17 16/23/19 28/24/20 27/22/18
f 16/23/19 17/25/21 29/26/22 28/24/20
f 17/25/21 18/27/23 30/28/24 29/26/22
f 18/27/23 19/29/25 31/30/26 30/28/24
f 19/29/25 20/31/27 32/32/28 31/30/26
f 20/31/27 21/33/29 33/34/30 32/32/28
f 21/33/29 22/35/31 34/36/32 33/34/30
f 22/35/31 23/37/33 35/38/34 34/36/32
f 23/37/33 24/39/35 36/40/36 35/38/34
f 24/39/35 13/17/13 25/20/16 36/40/36
f 25/20/16 26/19/15 38/41/37 37/42/38
f 26/19/15 27/22/18 39/43/39 38/41/37
f 27/22/18 28/24/20 40/44/40 39/43/39
f 28/24/20 29/26/22 41/45/41 40/44/40
f 29/26/22 30/28/24 42/46/42 41/45/41
f 30/28/24 31/30/26 43/47/43 42/46/42
f 31/30/26 32/32/28 44/48/44 43/47/43
f 32/32/28 33/34/30 45/49/45 44/48/44
f 33/34/30 34/36/32 46/50/46 45/49/45
f 34/36/32 35/38/34 47/51/47 46/50/46
f 35/38/34 36/40/36 48/52/48 47/51/47
f 36/40/36 25/20/16 37/42/38 48/52/48
f 37/42/38 38/41/37 50/53/49 49/54/50
f 38/41/37 39/43/39 51/55/51 50/53/49
f 39/43/39 40/44/40 52/56/52 51/55/51
f 40/44/40 41/45/41 53/57/53 52/56/52
f 41/45/41 42/46/42 54/58/54 53/57/53
f 42/46/42 43/47/43 55/59/55 54/58/54
f 43/47/43 44/48/44 56/60/56 55/59/55
f 44/48/44 45/49/45 57/61/57 56/60/56
f 45/49/45 46/50/46 58/62/58 57/61/57
f 46/50/46 47/51/47 59/63/59 58/62/58
f 47/51/47 48/52/48 60/64/60 59/63/59
f 48/52/48 37/42/38 49/54/50 60/64/60
f 49/54/50 50/53/49 62/65/61 61/66/62
f 50/53/49 51/55/51 63/67/63 62/65/61
f 51/55/51 52/56/52 64/68/64 63/67/63
f 52/56/52 53/57/53 65/69/65 64/68/64
f 53/57/53 54/58/54 66/70/66 65/69/65
f 54/58/54 55/59/55 67/71/67 66/70/66
f 55/59/55 56/60/56 68/72/68 67/71/67
f 56/60/56 57/61/57 69/73/69 68/72/68
f 57/61/57 58/62/58 70/74/70 69/73/69
f 58/62/58 59/63/59 71/75/71 70/74/70
f 59/63/59 60/64/60 72/76/72 71/75/71
f 60/64/60 49/54/50 61/66/62 72/76/72
f 61/66/62 62/65/61 74/77/73 73/78/74
f 62/65/61 63/67/63 75/79/75 74/77/73
f 63/67/63 64/68/64 76/80/76 75/79/75
f 64/68/64 65/69/65 77/81/77 76/80/76
f 65/69/65 66/70/66 78/82/78 77/81/77
f 66/70/66 67/71/67 79/83/79 78/82/78
f 67/71/67 68/72/68 80/84/80 79/83/79
f 68/72/68 69/73/69 81/85/81 80/84/80
f 69/73/69 70/74/70 82/86/82 81/85/81
f 70/74/70 71/75/71 83/87/83 82/86/82
f 71/75/71 72/76/72 84/88/84 83/87/83
f 72/76/72 61/66/62 73/78/74 84/88/84
f 73/78/74 74/77/73 86/89/85 85/90/86
f 74/77/73 75/79/75 87/91/87 86/89/85
f 75/79/75 76/80/76 88/92/88 87/91/87
f 76/80/76 77/81/77 89/93/89 88/92/88
f 77/81/77 78/82/78 90/94/90 89/93/89
f 78/82/78 79/83/79 91/95/91 90/94/90
f 79/83/79 80/84/80 92/96/92 91/95/91
f 80/84/80 81/85/81 93/97/93 92/96/92
f 81/85/81 82/86/82 94/98/94 93/97/93
f 82/86/82 83/87/83 95/99/95 94/98/94
f 83/87/83 84/88/84 96/100/96 95/99/95
f 84/88/84 73/78/74 85/90/86 96/100/96
f 85/90/86 86/89/85 98/101/97 97/102/98
f 86/89/85 87/91/87 99/103/99 98/101/97
f 87/91/87 88/92/88 100/104/100 99/103/99
f 88/92/88 89/93/89 101/105/101 100/104/100
f 89/93/89 90/94/90 102/106/102 101/105/101
f 90/94/90 91/95/91 103/107/103 102/106/102
f 91/95/91 92/96/92 104/108/104 103/107/103
f 92/96/92 93/97/93 105/109/105 104/108/104
f 93/97/93 94/98/94 106/110/106 105/109/105
f 94/98/94 95/99/95 107/111/107 106/110/106
f 95/99/95 96/100/96 108/112/108 107/111/107
f 97/102/98 98/101/97 110/113/109 109/114/110
f 98/101/97 99/103/99 111/115/111 110/113/109
f 99/103/99 100/104/100 112/116/112 111/115/111
f 100/104/100 101/105/101 113/117/113 112/116/112
f 101/105/101 102/106/102 114/118/114 113/117/113
f 102/106/102 103/107/103 115/119/115 114/118/114
f 103/107/103 104/108/104 116/120/116 115/119/115
f 104/108/104 105/109/105 117/121/117 116/120/116
f 105/109/105 106/110/106 118/122/118 117/121/117
f 106/110/106 107/111/107 119/123/119 118/122/118
f 107/111/107 108/112/108 120/124/120 119/123/119
f 108/112/108 97/102/98 109/114/110 120/124/120
f 109/114/110 110/113/109 122/125/121 121/126/122
f 110/113/109 111/115/111 123/127/123 122/125/121
f 111/115/111 112/116/112 124/128/124 123/127/123
f 112/116/112 113/117/113 125/129/125 124/128/124
f 113/117/113 114/118/114 126/130/126 125/129/125
f 114/118/114 115/119/115 127/131/127 126/130/126
f 115/119/115 116/120/116 128/132/128 127/131/127
f 116/120/116 117/121/117 129/133/129 128/132/128
f 117/121/117 118/122/118 130/134/130 129/133/129
f 118/122/118 119/123/119 131/135/131 130/134/130
f 119/123/119 120/124/120 132/136/132 131/135/131
f 120/124/120 109/114/110 121/126/122 132/136/132
f 121/126/122 122/125/121 134/137/133 133/138/134
f 122/125/121 123/127/123 135/139/135 134/137/133
f 123/127/123 124/128/124 136/140/136 135/139/135
f 124/128/124 125/129/125 137/141/137 136/140/136
f 125/129/125 126/130/126 138/142/138 137/141/137
f 126/130/126 127/131/127 139/143/139 138/142/138
f 127/131/127 128/132/128 140/144/140 139/143/139
f 128/132/128 129/133/129 141/145/141 140/144/140
f 129/133/129 130/134/130 142/146/142 141/145/141
f 130/134/130 131/135/131 143/147/143 142/146/142
f 131/135/131 132/136/132 144/148/144 143/147/143
f 132/136/132 121/126/122 133/138/134 144/148/144
f 14/18/14 13/17/13 145/149/145
f 15/21/17 14/18/14 145/149/145
f 16/23/19 15/21/17 145/149/145
f 17/25/21 16/23/19 145/149/145
f 18/27/23 17/25/21 145/149/145
f 19/29/25 18/27/23 145/149/145
f 20/31/27 19/29/25 145/149/145
f 21/33/29 20/31/27 145/149/145
f 22/35/31 21/33/29 145/149/145
f 23/37/33 22/35/31 145/149/145
f 24/39/35 23/37/33 145/149/145
f 13/17/13 24/39/35 145/149/145
f 133/138/134 134/137/133 146/150/146
f 134/137/133 135/139/135 146/150/146
f 135/139/135 136/140/136 146/150/146
f 136/140/136 137/141/137 146/150/146
f 137/141/137 138/142/138 146/150/146
f 138/142/138 139/143/139 146/150/146
f 139/143/139 140/144/140 146/150/146
f 140/144/140 141/145/141 146/150/146
f 141/145/141 142/146/142 146/150/146
f 142/146/142 143/147/143 146/150/146
f 143/147/143 144/148/144 146/150/146
f 144/148/144 133/138/134 146/150/146
s 4
f 147/151/147 148/152/148 153/153/149 152/154/150
f 148/152/148 149/155/151 154/156/152 153/153/149
f 149/155/151 150/157/153 155/158/154 154/156/152
f 150/157/153 151/159/155 156/160/156 155/158/154
f 151/159/155 147/151/147 152/154/150 156/160/156
f 152/154/150 153/153/149 154/156/152 155/158/154 156/160/156
s 5
f 157/161/157 158/162/158 163/163/159 162/164/160
f 158/162/158 159/165/161 164/166/162 163/163/159
f 159/165/161 160/167/163 165/168/164 164/166/162
f 160/167/163 161/169/165 166/170/166 165/168/164
f 161/169/165 157/161/157 162/164/160 166/170/166
f 162/164/160 163/163/159 164/166/162 165/168/164 166/170/166
s 6
f 167/171/167 168/172/168 173/173/169 172/174/170
f 168/172/168 169/175/171 174/176/172 173/173/169
f 169/175/171 170/177/173 175/178/174 174/176/172
f 170/177/173 171/179/175 176/180/176 175/178/174
f 171/179/175 167/171/167 172/174/170 176/180/176
f 172/174/170 173/173/169 174/176/172 175/178/174 176/180/176
s 7
f 177/181/177 178/182/178 183/183/179 182/184/180
f 178/182/178 179/185/181 184/186/182 183/183/179
f 179/185/181 180/187/183 185/188/184 184/186/182
f 180/187/183 181/189/185 186/190/186 185/188/184
f 181/189/185 177/181/177 182/184/180 186/190/186
f 182/184/180 183/183/179 184/186/182 185/188/184 186/190/186
s 8
f 187/191/187 188/192/188 193/193/189 192/194/190
f 188/192/188 189/195/191 194/196/192 193/193/189
f 189/195/191 190/197/193 195/198/194 194/196/192
f 190/197/193 191/199/195 196/200/196 195/198/194
f 191/199/195 187/191/187 192/194/190 196/200/196
f 192/194/190 193/193/189 194/196/192 195/198/194 196/200/196
s 9
f 197/201/197 198/202/198 203/203/199 202/204/200
f 198/202/198 199/205/201 204/206/202 203/203/199
f 199/205/201 200/207/203 205/208/204 204/206/202
f 200/207/203 201/209/205 206/210/206 205/208/204
f 201/209/205 197/201/197 202/204/200 206/210/206
f 202/204/200 203/203/199 204/206/202 205/208/204 206/210/206
s 10
f 207/211/207 208/212/208 213/213/209 212/214/210
f 208/212/208 209/215/211 214/216/212 213/213/209
f 209/215/211 210/217/213 215/218/214 214/216/212
f 210/217/213 211/219/215 216/220/216 215/218/214
f 211/219/215 207/211/207 212/214/210 216/220/216
f 212/214/210 213/213/209 214/216/212 215/218/214 216/220/216
s 11
f 217/221/217 218/222/218 223/223/219 222/224/220
f 218/222/218 219/225/221 224/226/222 223/223/219
f 219/225/221 220/227/223 225/228/224 224/226/222
f 220/227/223 221/229/225 226/230/226 225/228/224
f 221/229/225 217/221/217 222/224/220 226/230/226
f 222/224/220 223/223/219 224/226/222 225/228/224 226/230/226
s 12
f 227/231/227 228/232/228 233/233/229 232/234/230
f 228/232/228 229/235/231 234/236/232 233/233/229
f 229/235/231 230/237/233 235/238/234 234/236/232
f 230/237/233 231/239/235 236/240/236 235/238/234
f 231/239/235 227/231/227 232/234/230 236/240/236
f 232/234/230 233/233/229 234/236/232 235/238/234 236/240/236
s 13
f 237/241/237 238/242/238 243/243/239 242/244/240
f 238/242/238 239/245/241 244/246/242 243/243/239
f 239/245/241 240/247/243 245/248/244 244/246/242
f 240/247/243 241/249/245 246/250/246 245/248/244
f 241/249/245 237/241/237 242/244/240 246/250/246
f 242/244/240 243/243/239 244/246/242 245/248/244 246/250/246
s 14
f 247/251/247 248/252/248 253/253/249 252/254/250
f 248/252/248 249/255/251 254/256/252 253/253/249
f 249/255/251 250/257/253 255/258/254 254/256/252
f 250/257/253 251/259/255 256/260/256 255/258/254
f 251/259/255 247/251/247 252/254/250 256/260/256
f 252/254/250 253/253/249 254/256/252 255/258/254 256/260/256
s 15
f 257/261/257 258/262/258 263/263/259 262/264/260
f 258/262/258 259/265/261 264/266/262 263/263/259
f 259/265/261 260/267/263 265/268/264 264/266/262
f 260/267/263 261/269/265 266/270/266 265/268/264
f 261/269/265 257/261/257 262/264/260 266/270/266
f 262/264/260 263/263/259 264/266/262 265/268/264 266/270/266
s 16
f 267/271/267 268/272/268 273/273/269 272/274/270
f 268/272/268 269/275/271 274/276/272 273/273/269
f 269/275/271 270/277/273 275/278/274 274/276/272
f 270/277/273 271/279/275 276/280/276 275/278/274
f 271/279/275 267/271/267 272/274/270 276/280/276
f 272/274/270 273/273/269 274/276/272 275/278/274 276/280/276
s 17
f 277/281/277 278/282/278 283/283/279 282/284/280
f 278/282/278 279/285/281 284/286/282 283/283/279
f 279/285/281 280/287/283 285/288/284 284/286/282
f 280/287/283 281/289/285 286/290/286 285/288/284
f 281/289/285 277/281/277 282/284/280 286/290/286
f 282/284/280 283/283/279 284/286/282 285/288/284 286/290/286
s 18
f 287/291/287 288/292/288 293/293/289 292/294/290
f 288/292/288 289/295/291 294/296/292 293/293/289
f 289/295/291 290/297/293 295/298/294 294/296/292
f 290/297/293 291/299/295 296/300/296 295/298/294
f 291/299/295 287/291/287 292/294/290 296/300/296
f 292/294/290 293/293/289 294/296/292 295/298/294 296/300/296
s 19
f 297/301/297 298/302/298 303/303/299 302/304/300
f 298/302/298 299/305/301 304/306/302 303/303/299
f 299/305/301 300/307/303 305/308/304 304/306/302
f 300/307/303 301/309/305 306/310/306 305/308/304
f 301/309/305 297/301/297 302/304/300 306/310/306
f 302/304/300 303/303/299 304/306/302 305/308/304 306/310/306
s 20
f 307/311/307 308/312/308 313/313/309 312/314/310
f 308/312/308 309/315/311 314/316/312 313/313/309
f 309/315/311 310/317/313 315/318/314 314/316/312
f 310/317/313 311/319/315 316/320/316 315/318/314
f 311/319/315 307/311/307 312/314/310 316/320/316
f 312/314/310 313/313/309 314/316/312 315/318/314 316/320/316
s 21
f 317/321/317 318/322/318 323/323/319 322/324/320
f 318/322/318 319/325/321 324/326/322 323/323/319
f 319/325/321 320/327/323 325/328/324 324/326/322
f 320/327/323 321/329/325 326/330/326 325/328/324
f 321/329/325 317/321/317 322/324/320 326/330/326
f 322/324/320 323/323/319 324/326/322 325/328/324 326/330/326
s 22
f 327/331/327 328/332/328 333/333/329 332/334/330
f 328/332/328 329/335/331 334/336/332 333/333/329
f 329/335/331 330/337/333 335/338/334 334/336/332
f 330/337/333 331/339/335 336/340/336 335/338/334
f 331/339/335 327/331/327 332/334/330 336/340/336
f 332/334/330 333/333/329 334/336/332 335/338/334 336/340/336
s 23
f 337/341/337 338/342/338 343/343/339 342/344/340
f 338/342/338 339/345/341 344/346/342 343/343/339
f 339/345/341 340/347/343 345/348/344 344/346/342
f 340/347/343 341/349/345 346/350/346 345/348/344
f 341/349/345 337/341/337 342/344/340 346/350/346
f 342/344/340 343/343/339 344/346/342 345/348/344 346/350/346
s 24
f 347/351/347 348/352/348 353/353/349 352/354/350
f 348/352/348 349/355/351 354/356/352 353/353/349
f 349/355/351 350/357/353 355/358/354 354/356/352
f 350/357/353 351/359/355 356/360/356 355/358/354
f 351/359/355 347/351/347 352/354/350 356/360/356
f 352/354/350 353/353/349 354/356/352 355/358/354 356/360/356
s 25
f 357/361/357 358/362/358 363/363/359 362/364/360
f 358/362/358 359/365/361 364/366/362 363/363/359
f 359/365/361 360/367/363 365/368/364 364/366/362
f 360/367/363 361/369/365 366/370/366 365/368/364
f 361/369/365 357/361/357 362/364/360 366/370/366
f 362/364/360 363/363/359 364/366/362 365/368/364 366/370/366
s 26
f 367/371/367 368/372/368 373/373/369 372/374/370
f 368/372/368 369/375/371 374/376/372 373/373/369
f 369/375/371 370/377/373 375/378/374 374/376/372
f 370/377/373 371/379/375 376/380/376 375/378/374
f 371/379/375 367/371/367 372/374/370 376/380/376
f 372/374/370 373/373/369 374/376/372 375/378/374 376/380/376
s 27
f 377/381/377 378/382/378 383/383/379 382/384/380
f 378/382/378 379/385/381 384/386/382 383/383/379
f 379/385/381 380/387/383 385/388/384 384/386/382
f 380/387/383 381/389/385 386/390/386 385/388/384
f 381/389/385 377/381/377 382/384/380 386/390/386
f 382/384/380 383/383/379 384/386/382 385/388/384 386/390/386
s 28
f 387/391/387 388/392/388 393/393/389 392/394/390
f 388/392/388 389/395/391 394/396/392 393/393/389
f 389/395/391 390/397/393 395/398/394 394/396/392
f 390/397/393 391/399/395 396/400/396 395/398/394
f 391/399/395 387/391/387 392/394/390 396/400/396
f 392/394/390 393/393/389 394/396/392 395/398/394 396/400/396
s 29
f 397/401/397 398/402/398 403/403/399 402/404/400
f 398/402/398 399/405/401 404/406/402 403/403/399
f 399/405/401 400/407/403 405/408/404 404/406/402
f 400/407/403 401/409/405 406/410/406 405/408/404
f 401/409/405 397/401/397 402/404/400 406/410/406
f 402/404/400 403/403/399 404/406/402 405/408/404 406/410/406
s 30
f 407/411/407 408/412/408 413/413/409 412/414/410
f 408/412/408 409/415/411 414/416/412 413/413/409
f 409/415/411 410/417/413 415/418/414 414/416/412
f 410/417/413 411/419/415 416/420/416 415/418/414
f 411/419/415 407/411/407 412/414/410 416/420/416
f 412/414/410 413/413/409 414/416/412 415/418/414 416/420/416
s 31
f 417/421/417 418/422/418 423/423/419 422/424/420
f 418/422/418 419/425/421 424/426/422 423/423/419
f 419/425/421 420/427/423 425/428/424 424/426/422
f 420/427/423 421/429/425 426/430/426 425/428/424
f 421/429/425 417/421/417 422/424/420 426/430/426
f 422/424/420 423/423/419 424/426/422 425/428/424 426/430/426
s 32
f 427/431/427 428/432/428 433/433/429 432/434/430
f 428/432/428 429/435/431 434/436/432 433/433/429
f 429/435/431 430/437/433 435/438/434 434/436/432
f 430/437/433 431/439/435 436/440/436 435/438/434
f 431/439/435 427/431/427 432/434/430 436/440/436
f 432/434/430 433/433/429 434/436/432 435/438/434 436/440/436
s 33
f 437/441/437 438/442/438 443/443/439 442/444/440
f 438/442/438 439/445/441 444/446/442 443/443/439
f 439/445/441 440/447/443 445/448/444 444/446/442
f 440/447/443 441/449/445 446/450/446 445/448/444
f 441/449/445 437/441/437 442/444/440 446/450/446
f 442/444/440 443/443/439 444/446/442 445/448/444 446/450/446
s 34
f 447/451/447 448/452/448 453/453/449 452/454/450
f 448/452/448 449/455/451 454/456/452 453/453/449
f 449/455/451 450/457/453 455/458/454 454/456/452
f 450/457/453 451/459/455 456/460/456 455/458/454
f 451/459/455 447/451/447 452/454/450 456/460/456
f 452/454/450 453/453/449 454/456/452 455/458/454 456/460/456
s 35
f 457/461/457 458/462/458 463/463/459 462/464/460
f 458/462/458 459/465/461 464/466/462 463/463/459
f 459/465/461 460/467/463 465/468/464 464/466/462
f 460/467/463 461/469/465 466/470/466 465/468/464
f 461/469/465 457/461/457 462/464/460 466/470/466
f 462/464/460 463/463/459 464/466/462 465/468/464 466/470/466
s 36
f 467/471/467 468/472/468 473/473/469 472/474/470
f 468/472/468 469/475/471 474/476/472 473/473/469
f 469/475/471 470/477/473 475/478/474 474/476/472
f 470/477/473 471/479/475 476/480/476 475/478/474
f 471/479/475 467/471/467 472/474/470 476/480/476
f 472/474/470 473/473/469 474/476/472 475/478/474 476/480/476
s 37
f 477/481/477 478/482/478 483/483/479 482/484/480
f 478/482/478 479/485/481 484/486/482 483/483/479
f 479/485/481 480/487/483 485/488/484 484/486/482
f 480/487/483 481/489/485 486/490/486 485/488/484
f 481/489/485 477/481/477 482/484/480 486/490/486
f 482/484/480 483/483/479 484/486/482 485/488/484 486/490/486
s 38
f 487/491/487 488/492/488 493/493/489 492/494/490
f 488/492/488 489/495/491 494/496/492 493/493/489
f 489/495/491 490/497/493 495/498/494 494/496/492
f 490/497/493 491/499/495 496/500/496 495/498/494
f 491/499/495 487/491/487 492/494/490 496/500/496
f 492/494/490 493/493/489 494/496/492 495/498/494 496/500/496
s 39
f 497/501/497 498/502/498 503/503/499 502/504/500
f 498/502/498 499/505/501 504/506/502 503/503/499
f 499/505/501 500/507/503 505/508/504 504/506/502
f 500/507/503 501/509/505 506/510/506 505/508/504
f 501/509/505 497/501/497 502/504/500 506/510/506
f 502/504/500 503/503/499 504/506/502 505/508/504 506/510/506
s 40
f 507/511/507 508/512/508 513/513/509 512/514/510
f 508/512/508 509/515/511 514/516/512 513/513/509
f 509/515/511 510/517/513 515/518/514 514/516/512
f 510/517/513 511/519/515 516/520/516 515/518/514
f 511/519/515 507/511/507 512/514/510 516/520/516
f 512/514/510 513/513/509 514/516/512 515/518/514 516/520/516
s 41
f 517/521/517 518/522/518 523/523/519 522/524/520
f 518/522/518 519/525/521 524/526/522 523/523/519
f 519/525/521 520/527/523 525/528/524 524/526/522
f 520/527/523 521/529/525 526/530/526 525/528/524
f 521/529/525 517/521/517 522/524/520 526/530/526
f 522/524/520 523/523/519 524/526/522 525/528/524 526/530/526
s 42
f 527/531/527 528/532/528 533/533/529 532/534/530
f 528/532/528 529/535/531 534/536/532 533/533/529
f 529/535/531 530/537/533 535/538/534 534/536/532
f 530/537/533 531/539/535 536/540/536 535/538/534
f 531/539/535 527/531/527 532/534/530 536/540/536
f 532/534/530 533/533/529 534/536/532 535/538/534 536/540/536
s 43
f 537/541/537 538/542/538 543/543/539 542/544/540
f 538/542/538 539/545/541 544/546/542 543/543/539
f 539/545/541 540/547/543 545/548/544 544/546/542
f 540/547/543 541/549/545 546/550/546 545/548/544
f 541/549/545 537/541/537 542/544/540 546/550/546
f 542/544/540 543/543/539 544/546/542 545/548/544 546/550/546
s 44
f 547/551/547 548/552/548 553/553/549 552/554/550
f 548/552/548 549/555/551 554/556/552 553/553/549
f 549/555/551 550/557/553 555/558/554 554/556/552
f 550/557/553 551/559/555 556/560/556 555/558/554
f 551/559/555 547/551/547 552/554/550 556/560/556
f 552/554/550 553/553/549 554/556/552 555/558/554 556/560/556
s 3
f 85/90/86 97/102/98 108/112/108 96/100/96
s 1
f 4/2/557 3/3/558 557/562/2 558/561/1
f 3/3/558 5/5/559 559/563/3 557/562/2
f 6/8/560 4/2/557 558/561/1 560/564/4
f 5/7/559 2/4/561 561/566/5 559/565/3
f 2/4/561 1/1/562 562/567/6 561/566/5
f 1/1/562 6/6/560 560/568/4 562/567/6
s 2
f 10/9/563 9/10/564 563/570/8 564/569/7
f 9/10/564 11/11/565 565/571/9 563/570/8
f 12/12/566 10/9/563 564/569/7 566/572/10
f 11/13/565 8/14/567 567/574/11 565/573/9
f 8/14/567 7/15/568 568/575/12 567/574/11
f 7/15/568 12/16/566 566/576/10 568/575/12
s off
f 2/4/569 5/7/570 6/6/571 1/1/572
f 5/5/573 3/3/574 4/2/575 6/8/576
f 8/14/577 11/13/578 12/16/579 7/15/580
f 11/11/581 9/10/582 10/9/583 12/12/584
