# This file uses centimeters as units for non-parametric coordinates.

mtllib Rock_03_v01a.mtl
v 1.370098 6.420521 -2.370286
v -1.443944 6.413145 -2.517185
v -2.770056 6.554626 0.300553
v -1.563499 6.660993 2.418947
v 1.370098 6.660993 2.418947
v 2.770056 6.546668 0.142068
v 1.971220 5.544774 -3.397791
v 1.883202 5.885890 -3.247292
v -2.045065 4.830482 -3.533395
v -1.967832 5.427792 -3.402575
v -3.972297 5.535811 0.309996
v -3.785926 6.208117 0.308476
v -2.164620 5.556559 3.472476
v -2.072025 6.227029 3.310168
v 1.971219 5.086926 3.471958
v 1.878407 6.246765 3.309341
v 3.972297 4.276275 0.151510
v 3.779958 6.202196 0.149945
v -0.101406 5.906133 3.681031
v -0.096809 6.236896 3.309754
v -0.096701 6.660993 2.418947
v 3.151583 5.897948 1.920690
v 2.829182 6.224481 1.729643
v 2.070077 6.603830 1.280507
v 3.151584 5.711734 -1.720750
v 2.831580 6.044044 -1.548673
v 2.070077 6.483595 -1.114109
v -0.038033 5.297084 -3.674003
v -0.042315 5.656841 -3.324933
v -0.036923 6.416833 -2.443736
v -3.188507 5.467695 -1.708621
v -2.876879 5.817954 -1.547049
v -2.107000 6.483886 -1.108316
v 2.375322 -6.660993 -1.296796
v 1.485692 -6.660993 -2.562911
v 2.993888 -6.660993 0.116440
v 2.375322 -6.660993 1.449556
v 1.485691 -6.660993 2.618212
v -0.076429 -6.660993 2.775668
v -1.631456 -6.660993 2.618212
v -2.993888 -6.660993 0.235957
v -2.403151 -6.660993 -1.292165
v -1.541349 -6.660993 -2.673691
v -0.028665 -6.660993 -2.775757
v -0.020535 -6.660992 0.016474
v 1.971220 -5.988807 -3.400429
v 1.923195 -6.182853 -3.317617
v -0.038033 -5.988841 -3.682757
v -0.037116 -6.182325 -3.594044
v -2.045065 -5.344970 -3.547267
v -1.995601 -6.182474 -3.461645
v -3.188507 -5.989260 -1.714361
v -3.110471 -6.183093 -1.672475
v -3.972297 -5.728938 0.313046
v -3.875075 -6.183096 0.305419
v -2.164620 -4.685857 3.473848
v -2.112244 -6.182494 3.389809
v -0.101406 -5.988989 3.682757
v -0.098955 -6.182428 3.593780
v 1.971219 -5.771111 3.473841
v 1.923612 -6.182397 3.389966
v 3.151583 -5.989071 1.923259
v 3.075504 -6.182374 1.876860
v 3.972297 -3.784712 0.154472
v 3.875985 -6.182602 0.150760
v 3.151584 -5.989452 -1.720579
v 3.073965 -6.183425 -1.678203
vt 0.254506 0.391801
vt 0.246141 0.402702
vt 0.163570 0.407890
vt 0.163494 0.344712
vt 0.336028 0.386324
vt 0.328713 0.397514
vt 0.086779 0.408622
vt 0.077492 0.397910
vt 0.163350 0.080279
vt 0.254498 0.007955
vt 0.336157 0.007976
vt 0.009989 0.409353
vt 0.002084 0.371305
vt 0.077367 0.007967
vt 0.163530 0.001619
vt 0.252438 0.001592
vt 0.332131 0.001610
vt 0.001992 0.015117
vt 0.079623 0.001626
vt 0.006069 0.001625
vt 0.739223 0.408074
vt 0.739297 0.386020
vt 0.893028 0.386700
vt 0.885138 0.408694
vt 0.649024 0.395275
vt 0.641170 0.383785
vt 0.739445 0.016490
vt 0.893094 0.050707
vt 0.558825 0.382476
vt 0.552466 0.362882
vt 0.640891 0.007950
vt 0.739074 0.001592
vt 0.889009 0.001611
vt 0.551791 0.029086
vt 0.642927 0.001592
vt 0.555954 0.001612
vt 0.749214 0.681035
vt 0.622741 0.602727
vt 0.756868 0.605444
vt 0.633410 0.747264
vt 0.749214 0.529508
vt 0.796637 0.606539
vt 0.786722 0.704407
vt 0.559127 0.718548
vt 0.636787 0.790100
vt 0.692405 0.486262
vt 0.786730 0.508220
vt 0.491970 0.676655
vt 0.540640 0.752932
vt 0.627601 0.456193
vt 0.713176 0.452226
vt 0.487008 0.603122
vt 0.453667 0.698737
vt 0.558902 0.486262
vt 0.629269 0.413313
vt 0.497355 0.529508
vt 0.447231 0.603533
vt 0.540361 0.452300
vt 0.460668 0.508240
vt 0.456642 0.505906
vt 0.442918 0.603577
vt 0.373408 0.530489
vt 0.376978 0.598886
vt 0.380549 0.667283
vt 0.312063 0.699514
vt 0.243576 0.731746
vt 0.140599 0.673094
vt 0.140599 0.601792
vt 0.140599 0.530490
vt 0.195940 0.496463
vt 0.251280 0.462436
vt 0.312344 0.496463
vt 0.416040 0.505547
vt 0.419814 0.599148
vt 0.423589 0.692749
vt 0.333390 0.736939
vt 0.243191 0.781129
vt 0.097276 0.697814
vt 0.097296 0.601797
vt 0.097316 0.505780
vt 0.174107 0.459562
vt 0.250897 0.413344
vt 0.333469 0.459446
vt 0.423356 0.501268
vt 0.436783 0.598940
vt 0.429948 0.696504
vt 0.089386 0.702315
vt 0.079248 0.602021
vt 0.443772 0.408998
vt 0.443548 0.398148
vt 0.544300 0.371275
vt 0.539789 0.409322
vt 0.443548 0.007939
vt 0.544300 0.015087
vt 0.343254 0.050687
vt 0.343254 0.386680
vt 0.443667 0.001594
vt 0.541986 0.001595
vt 0.345800 0.001592
vt 0.900336 0.791035
vt 0.900381 0.797383
vt 0.805177 0.797387
vt 0.802773 0.769914
vt 0.900336 0.420811
vt 0.802773 0.436117
vt 0.998008 0.791034
vt 0.998008 0.412686
vn -0.187069 -0.958903 0.213330
vn 0.000000 -1.000000 0.000000
vn 0.000354 -0.969233 0.246145
vn 0.024606 0.993895 -0.107548
vn -0.002060 0.994590 -0.103860
vn -0.053446 0.988939 -0.138360
vn -0.044013 0.995997 -0.077797
vn -0.068451 0.996679 -0.044098
vn -0.041115 0.999119 0.008396
vn -0.000196 0.999909 -0.013483
vn 0.022911 0.999736 -0.001778
vn 0.024434 0.999124 -0.033981
vn 0.044922 0.997726 -0.050255
vn 0.027324 0.997380 -0.066986
vn 0.861154 0.030306 -0.507439
vn 0.647125 0.673272 -0.357679
vn 0.843766 0.536288 -0.021314
vn 0.999902 0.011038 0.008562
vn 0.249593 0.784123 -0.568202
vn 0.546968 0.021062 -0.836889
vn 0.046079 0.021908 -0.998698
vn -0.031218 0.683678 -0.729115
vn -0.379934 0.644539 -0.663491
vn -0.537289 0.016515 -0.843236
vn -0.897694 0.023442 -0.439996
vn -0.610216 0.684050 -0.399640
vn -0.725052 0.679131 0.114369
vn -0.982005 0.017428 0.188048
vn -0.636450 0.016297 0.771146
vn -0.506811 0.675146 0.536022
vn -0.003663 0.028438 0.999589
vn 0.013898 0.724118 0.689536
vn 0.359099 0.658065 0.661815
vn 0.477495 0.014137 0.878521
vn 0.849141 0.038511 0.526761
vn 0.680519 0.633671 0.367905
vn 0.146343 -0.960766 -0.235609
vn 0.217467 -0.968338 -0.122597
vn 0.277158 -0.960823 -0.001468
vn 0.210306 -0.969391 0.126700
vn 0.130444 -0.961515 0.241813
vn -0.277651 -0.959126 0.054652
vn -0.222770 -0.968553 -0.110809
vn -0.148243 -0.960532 -0.235378
vn 0.009577 -0.969464 -0.245047
vn 0.526353 -0.006887 -0.850238
vn 0.318935 -0.790760 -0.522475
vn 0.002478 -0.712272 -0.701899
vn 0.046308 -0.008257 -0.998893
vn 0.858635 -0.011396 -0.512460
vn 0.757489 -0.545080 -0.359302
vn -0.409669 -0.631036 -0.658760
vn -0.528941 -0.004925 -0.848644
vn -0.653080 -0.676931 -0.339486
vn -0.897037 -0.009204 -0.441859
vn -0.804557 -0.520887 0.285245
vn -0.989660 -0.008942 0.143157
vn -0.595626 -0.470796 0.650831
vn -0.630032 -0.004929 0.776554
vn -0.032213 -0.617580 0.785848
vn 0.012862 -0.010565 0.999862
vn 0.322366 -0.736275 0.594961
vn 0.476527 -0.006565 0.879135
vn 0.750452 -0.534804 0.388339
vn 0.843801 -0.012555 0.536509
vn 0.922483 -0.386036 0.001403
vn 0.999988 -0.002746 0.004023
s 1
g Rock_03_Geo
usemtl initialShadingGroup
f 40/37/1 45/38/2 39/39/3
f 1/62/4 30/63/5 2/64/6 33/65/7 3/66/8 4/67/9 21/68/10 5/69/11 24/70/12 6/71/13 27/72/14
f 25/1/15 26/2/16 18/3/17 17/4/18
f 8/73/19 7/84/20 28/85/21 29/74/22
f 10/29/23 9/30/24 31/26/25 32/25/26
f 12/21/27 11/22/28 13/23/29 14/24/30
f 14/78/30 13/87/29 19/88/31 20/79/32
f 16/12/33 15/13/34 22/8/35 23/7/36
f 8/73/19 29/74/22 30/63/5 1/62/4
f 10/75/23 32/76/26 33/65/7 2/64/6
f 12/77/27 14/78/30 4/67/9 3/66/8
f 14/78/30 20/79/32 21/68/10 4/67/9
f 16/80/33 23/81/36 24/70/12 5/69/11
f 18/82/17 26/83/16 27/72/14 6/71/13
f 20/89/32 19/90/31 15/91/34 16/92/33
f 21/68/10 20/79/32 16/80/33 5/69/11
f 23/7/36 22/8/35 17/4/18 18/3/17
f 24/70/12 23/81/36 18/82/17 6/71/13
f 7/5/20 8/6/19 26/2/16 25/1/15
f 27/72/14 26/83/16 8/73/19 1/62/4
f 29/74/22 28/85/21 9/86/24 10/75/23
f 30/63/5 29/74/22 10/75/23 2/64/6
f 32/25/26 31/26/25 11/22/28 12/21/27
f 33/65/7 32/76/26 12/77/27 3/66/8
f 35/56/37 34/54/38 45/38/2
f 45/38/2 34/54/38 36/50/39
f 45/38/2 36/50/39 37/46/40
f 45/38/2 37/46/40 38/41/41
f 45/38/2 38/41/41 39/39/3
f 41/40/42 45/38/2 40/37/1
f 42/44/43 45/38/2 41/40/42
f 43/48/44 45/38/2 42/44/43
f 44/52/45 45/38/2 43/48/44
f 35/56/37 45/38/2 44/52/45
f 46/60/46 47/59/47 49/57/48 48/61/49
f 47/17/47 46/11/46 66/10/50 67/16/51
f 48/100/49 49/101/48 51/102/52 50/103/53
f 50/34/53 51/36/52 53/35/54 52/31/55
f 52/31/55 53/35/54 55/32/56 54/27/57
f 54/27/57 55/32/56 57/33/58 56/28/59
f 56/95/59 57/99/58 59/97/60 58/93/61
f 58/93/61 59/97/60 61/98/62 60/94/63
f 60/18/63 61/20/62 63/19/64 62/14/65
f 62/14/65 63/19/64 65/15/66 64/9/67
f 64/9/67 65/15/66 67/16/51 66/10/50
f 46/106/46 48/100/49 28/104/21 7/107/20
f 50/34/53 52/31/55 31/26/25 9/30/24
f 54/27/57 56/28/59 13/23/29 11/22/28
f 56/95/59 58/93/61 19/90/31 13/96/29
f 60/18/63 62/14/65 22/8/35 15/13/34
f 64/9/67 66/10/50 25/1/15 17/4/18
f 19/90/31 58/93/61 60/94/63 15/91/34
f 22/8/35 62/14/65 64/9/67 17/4/18
f 25/1/15 66/10/50 46/11/46 7/5/20
f 28/104/21 48/100/49 50/103/53 9/105/24
f 31/26/25 52/31/55 54/27/57 11/22/28
f 47/59/47 67/58/51 34/54/38 35/56/37
f 67/58/51 65/55/66 36/50/39 34/54/38
f 65/55/66 63/51/64 37/46/40 36/50/39
f 63/51/64 61/47/62 38/41/41 37/46/40
f 61/47/62 59/42/60 39/39/3 38/41/41
f 59/42/60 57/43/58 40/37/1 39/39/3
f 57/43/58 55/45/56 41/40/42 40/37/1
f 55/45/56 53/49/54 42/44/43 41/40/42
f 53/49/54 51/53/52 43/48/44 42/44/43
f 51/53/52 49/57/48 44/52/45 43/48/44
f 49/57/48 47/59/47 35/56/37 44/52/45
