# This file uses centimeters as units for non-parametric coordinates.

mtllib Barnacle_v01a.mtl
v 0.000000 0.000000 -0.000000
v 0.166092 0.087140 -0.166092
v -0.000000 0.087140 -0.234889
v -0.166092 0.087140 -0.166092
v -0.234889 0.087140 -0.000000
v -0.166092 0.087140 0.166092
v -0.000000 0.087140 0.234889
v 0.166092 0.087140 0.166092
v 0.234889 0.087140 -0.000000
v 0.000000 0.058575 0.094566
v 0.066868 0.058575 0.066868
v 0.094566 0.058575 -0.000000
v 0.000000 0.058575 -0.094566
v 0.066868 0.058575 -0.066868
v -0.066868 0.058575 -0.066868
v -0.094566 0.058575 -0.000000
v -0.066868 0.058575 0.066868
vt 0.219086 0.674363
vt 0.199625 0.664561
vt 0.221427 0.657388
vt 0.206510 0.685713
vt 0.189572 0.684625
vt 0.178384 0.671767
vt 0.179596 0.654686
vt 0.192577 0.643393
vt 0.209824 0.644509
vt 0.253039 0.647889
vt 0.250055 0.691010
vt 0.216232 0.718470
vt 0.173221 0.714529
vt 0.145669 0.681334
vt 0.149695 0.638318
vt 0.182989 0.610679
vt 0.226032 0.614620
vn -0.000000 0.970374 0.241608
vn 0.000000 1.000000 0.000000
vn -0.170843 0.970374 0.170843
vn 0.170843 0.970374 0.170843
vn 0.241608 0.970374 0.000000
vn 0.170842 0.970374 -0.170842
vn -0.000000 0.970374 -0.241608
vn -0.170843 0.970374 -0.170843
vn -0.241608 0.970374 0.000000
vn -0.141047 0.979904 0.141047
vn 0.000000 0.979904 0.199470
vn 0.141047 0.979904 0.141047
vn 0.199470 0.979904 -0.000000
vn 0.141047 0.979904 -0.141047
vn 0.000000 0.979904 -0.199470
vn -0.141047 0.979904 -0.141047
vn -0.199470 0.979904 0.000000
s 1
g Barnacle_01_Geo
usemtl initialShadingGroup
f 13/1/1 1/2/2 14/3/3
f 15/4/4 1/2/2 13/1/1
f 16/5/5 1/2/2 15/4/4
f 17/6/6 1/2/2 16/5/5
f 10/7/7 1/2/2 17/6/6
f 11/8/8 1/2/2 10/7/7
f 12/9/9 1/2/2 11/8/8
f 14/3/3 1/2/2 12/9/9
f 2/10/10 3/11/11 13/1/1 14/3/3
f 13/1/1 3/11/11 4/12/12 15/4/4
f 15/4/4 4/12/12 5/13/13 16/5/5
f 16/5/5 5/13/13 6/14/14 17/6/6
f 17/6/6 6/14/14 7/15/15 10/7/7
f 10/7/7 7/15/15 8/16/16 11/8/8
f 11/8/8 8/16/16 9/17/17 12/9/9
f 12/9/9 9/17/17 2/10/10 14/3/3
