# This file uses centimeters as units for non-parametric coordinates.

mtllib ShelfCoral_v01a.mtl
v 0.634668 0.654018 -1.532223
v -0.634667 0.654018 -1.532222
v -1.532223 0.654018 -0.634668
v 1.532223 0.654018 -0.634668
v -0.452072 0.468159 -1.091398
v 0.000000 0.654018 -1.653282
v 0.452072 0.468159 -1.091398
v -1.091398 0.468159 -0.452072
v -1.169047 0.654018 -1.169046
v -1.653282 0.654018 -0.000000
v 1.091398 0.468159 -0.452072
v 1.653281 0.654018 0.000000
v 1.169047 0.654018 -1.169047
v 0.000000 0.468159 -1.177628
v -0.832709 0.468159 -0.832709
v -1.177628 0.468159 -0.000000
v 1.177628 0.468159 -0.000000
v 0.832709 0.468159 -0.832709
v 0.484823 0.318539 -1.170467
v -0.000001 0.318540 -1.262944
v -0.484823 0.318539 -1.170466
v 0.000001 0.495295 -1.715301
v -0.658346 0.495164 -1.589390
v 0.658347 0.495164 -1.589390
v -0.893036 0.318540 -0.893036
v -1.170467 0.318539 -0.484823
v -1.212902 0.495295 -1.212901
v -1.589390 0.495164 -0.658347
v -1.262944 0.318540 -0.000000
v -1.715301 0.495295 -0.000000
v 1.262944 0.318540 -0.000000
v 1.170466 0.318539 -0.484823
v 1.715301 0.495295 0.000001
v 1.589390 0.495164 -0.658346
v 0.893035 0.318540 -0.893037
v 1.212901 0.495295 -1.212902
v 0.000000 0.000000 -0.000000
v 0.000000 0.300682 0.000000
vt 0.239640 0.823763
vt 0.175203 0.836054
vt 0.152141 0.780376
vt 0.239641 0.763641
vt 0.239641 0.991619
vt 0.120948 0.872927
vt 0.078435 0.830414
vt 0.304078 0.836054
vt 0.327141 0.780375
vt 0.084075 0.927182
vt 0.028397 0.904119
vt 0.358333 0.872927
vt 0.400846 0.830414
vt 0.071784 0.991619
vt 0.011662 0.991619
vt 0.395206 0.927182
vt 0.450884 0.904119
vt 0.407497 0.991619
vt 0.467619 0.991619
vt 0.239641 0.835102
vt 0.239641 0.771884
vt 0.323993 0.787974
vt 0.299725 0.846563
vt 0.179556 0.846563
vt 0.155288 0.787973
vt 0.239640 0.763641
vt 0.327140 0.780376
vt 0.395017 0.836243
vt 0.350315 0.880945
vt 0.239641 0.991619
vt 0.128966 0.880945
vt 0.084264 0.836243
vt 0.152140 0.780375
vt 0.400846 0.830414
vt 0.443286 0.907266
vt 0.384697 0.931535
vt 0.094584 0.931535
vt 0.035995 0.907266
vt 0.078435 0.830414
vt 0.450884 0.904119
vt 0.459376 0.991619
vt 0.396158 0.991619
vt 0.083124 0.991619
vt 0.019905 0.991619
vt 0.028397 0.904119
vt 0.467619 0.991619
vt 0.011662 0.991619
vn -0.000000 -0.951434 -0.307853
vn -0.117698 -0.951529 -0.284148
vn -0.268360 -0.712906 -0.647879
vn -0.000000 -0.713403 -0.700754
vn 0.117697 -0.951529 -0.284147
vn 0.268360 -0.712906 -0.647879
vn -0.217685 -0.951434 -0.217685
vn -0.284147 -0.951529 -0.117698
vn -0.647879 -0.712906 -0.268360
vn -0.495508 -0.713403 -0.495509
vn -0.307323 -0.949798 -0.058619
vn -0.694567 -0.707104 -0.132592
vn 0.307324 -0.949798 -0.058619
vn 0.284147 -0.951529 -0.117698
vn 0.647879 -0.712907 -0.268360
vn 0.694567 -0.707104 -0.132592
vn 0.217685 -0.951434 -0.217685
vn 0.495508 -0.713403 -0.495508
vn 0.000000 0.963204 0.268772
vn -0.000000 0.997949 -0.064017
vn -0.026477 0.997604 -0.063921
vn 0.102969 0.963120 0.248589
vn -0.102969 0.963120 0.248589
vn 0.026477 0.997604 -0.063921
vn 0.190050 0.963204 0.190051
vn -0.045267 0.997949 -0.045267
vn -0.063921 0.997604 -0.026477
vn 0.248589 0.963120 0.102969
vn -0.064012 0.997873 -0.012328
vn 0.268419 0.961941 0.051199
vn -0.268420 0.961941 0.051199
vn 0.064014 0.997873 -0.012328
vn 0.063921 0.997604 -0.026477
vn -0.248589 0.963120 0.102969
vn -0.190051 0.963204 0.190050
vn 0.045267 0.997949 -0.045267
vn 0.000000 -0.986777 -0.162084
vn 0.000000 0.995739 0.092222
s 1
g ShelfCoral_Geo
usemtl initialShadingGroup
f 20/1/1 21/2/2 23/3/3 22/4/4
f 19/8/5 20/1/1 22/4/4 24/9/6
f 25/6/7 26/10/8 28/11/9 27/7/10
f 21/2/2 25/6/7 27/7/10 23/3/3
f 26/10/8 29/14/11 30/15/12 28/11/9
f 31/18/13 32/16/14 34/17/15 33/19/16
f 35/12/17 19/8/5 24/9/6 36/13/18
f 32/16/14 35/12/17 36/13/18 34/17/15
f 14/20/19 6/21/20 2/22/21 5/23/22
f 7/24/23 1/25/24 6/21/20 14/20/19
f 15/29/25 9/28/26 3/35/27 8/36/28
f 5/23/22 2/22/21 9/28/26 15/29/25
f 8/36/28 3/35/27 10/41/29 16/42/30
f 17/43/31 12/44/32 4/38/33 11/37/34
f 18/31/35 13/32/36 1/25/24 7/24/23
f 11/37/34 4/38/33 13/32/36 18/31/35
f 6/21/20 22/26/4 23/27/3 2/22/21
f 1/25/24 24/33/6 22/26/4 6/21/20
f 9/28/26 27/34/10 28/40/9 3/35/27
f 2/22/21 23/27/3 27/34/10 9/28/26
f 3/35/27 28/40/9 30/46/12 10/41/29
f 12/44/32 33/47/16 34/45/15 4/38/33
f 13/32/36 36/39/18 24/33/6 1/25/24
f 4/38/33 34/45/15 36/39/18 13/32/36
f 19/8/5 35/12/17 37/5/37
f 37/5/37 35/12/17 32/16/14
f 37/5/37 32/16/14 31/18/13
f 26/10/8 37/5/37 29/14/11
f 25/6/7 37/5/37 26/10/8
f 21/2/2 37/5/37 25/6/7
f 20/1/1 37/5/37 21/2/2
f 19/8/5 37/5/37 20/1/1
f 7/24/23 14/20/19 38/30/38
f 38/30/38 14/20/19 5/23/22
f 38/30/38 5/23/22 15/29/25
f 38/30/38 15/29/25 8/36/28
f 38/30/38 8/36/28 16/42/30
f 11/37/34 38/30/38 17/43/31
f 18/31/35 38/30/38 11/37/34
f 7/24/23 38/30/38 18/31/35
