# This file uses centimeters as units for non-parametric coordinates.

mtllib TubeCoral_v01a.mtl
v -0.149709 -0.112294 -0.419274
v -0.387590 -0.204269 -0.510162
v -0.634024 -0.236606 -0.402777
v -0.744654 -0.190362 -0.160022
v -0.654674 -0.092627 0.075898
v -0.416794 -0.000652 0.166786
v -0.170359 0.031685 0.059401
v -0.059730 -0.014559 -0.183354
v -0.686687 1.896496 -1.046657
v -0.924567 1.804521 -1.137545
v -1.171001 1.772185 -1.030159
v -1.281631 1.818428 -0.787405
v -1.191652 1.916164 -0.551484
v -0.953771 2.008139 -0.460596
v -0.707337 2.040475 -0.567982
v -0.596707 1.994231 -0.810736
v -0.780702 1.971308 -0.995767
v -0.948112 1.906579 -1.059730
v -1.121543 1.883822 -0.984156
v -1.199399 1.916367 -0.813316
v -1.136075 1.985149 -0.647285
v -0.968665 2.049877 -0.583321
v -0.795235 2.072634 -0.658895
v -0.717378 2.040090 -0.829735
v -0.378010 0.335095 -0.449945
v -0.512392 0.283137 -0.501289
v -0.651607 0.264869 -0.440625
v -0.714104 0.290993 -0.303489
v -0.663273 0.346205 -0.170214
v -0.528890 0.398163 -0.118870
v -0.389675 0.416431 -0.179534
v -0.327179 0.390307 -0.316670
v -0.386426 0.890863 -0.764121
v -0.654241 0.787315 -0.866446
v -0.931686 0.750909 -0.745548
v -1.056237 0.802972 -0.472246
v -0.954935 0.913006 -0.206637
v -0.687120 1.016555 -0.104312
v -0.409675 1.052961 -0.225211
v -0.285124 1.000898 -0.498513
v 0.885110 -0.232057 0.239789
v 0.714153 -0.138078 0.025037
v 0.436010 -0.058192 0.004250
v 0.213615 -0.039195 0.189606
v 0.177243 -0.092216 0.472524
v 0.348201 -0.186195 0.687277
v 0.626344 -0.266080 0.708063
v 0.848739 -0.285077 0.522708
v 1.377752 1.588452 0.644295
v 1.206794 1.682431 0.429543
v 0.928652 1.762317 0.408756
v 0.706256 1.781314 0.594112
v 0.669885 1.728293 0.877031
v 0.840843 1.634314 1.091783
v 1.118985 1.554428 1.112569
v 1.341380 1.535432 0.927214
v 1.294742 1.689871 0.696700
v 1.174429 1.756010 0.545567
v 0.978683 1.812230 0.530938
v 0.822171 1.825599 0.661383
v 0.796574 1.788285 0.860490
v 0.916887 1.722147 1.011624
v 1.112632 1.665926 1.026253
v 1.269145 1.652557 0.895807
v 0.865717 0.295754 0.400936
v 0.769140 0.348844 0.279619
v 0.612012 0.393973 0.267876
v 0.486378 0.404705 0.372586
v 0.465831 0.374752 0.532412
v 0.562408 0.321662 0.653729
v 0.719535 0.276533 0.665471
v 0.845170 0.265802 0.560761
v 1.117201 0.452224 0.379144
v 0.924730 0.558029 0.137367
v 0.611586 0.647968 0.113965
v 0.361205 0.669355 0.322645
v 0.320257 0.609662 0.641166
v 0.512728 0.503857 0.882942
v 0.825871 0.413919 0.906345
v 1.076252 0.392532 0.697664
v 0.429168 -0.085321 -0.302291
v 0.052007 -0.120023 -0.455848
v -0.325154 -0.121022 -0.298422
v -0.481379 -0.087731 0.077769
v -0.325154 -0.039653 0.452358
v 0.052007 -0.004951 0.605915
v 0.429168 -0.003952 0.448489
v 0.585393 -0.037243 0.072297
v 0.301528 2.580292 -0.591187
v -0.075634 2.545589 -0.744744
v -0.452795 2.544591 -0.587318
v -0.609020 2.577882 -0.211126
v -0.452795 2.625960 0.163463
v -0.075634 2.660662 0.317020
v 0.301528 2.661660 0.159593
v 0.457753 2.628370 -0.216598
v 0.185228 2.682463 -0.489748
v -0.080202 2.658041 -0.597815
v -0.345632 2.657338 -0.487025
v -0.455577 2.680767 -0.222277
v -0.345632 2.714602 0.041343
v -0.080202 2.739024 0.149411
v 0.185229 2.739727 0.038620
v 0.295173 2.716299 -0.226128
v 0.236916 0.512610 -0.201850
v 0.023851 0.493006 -0.288597
v -0.189213 0.492442 -0.199664
v -0.277467 0.511248 0.012853
v -0.189213 0.538408 0.224464
v 0.023851 0.558012 0.311211
v 0.236916 0.558576 0.222278
v 0.325170 0.539770 0.009762
v 0.412809 1.244612 -0.494221
v -0.011813 1.205543 -0.667101
v -0.436435 1.204419 -0.489865
v -0.612320 1.241899 -0.066334
v -0.436435 1.296027 0.355392
v -0.011813 1.335096 0.528272
v 0.412809 1.336220 0.351036
v 0.588693 1.298740 -0.072495
v 0.824434 -0.234245 -0.387391
v 0.610074 -0.207984 -0.608002
v 0.322471 -0.096493 -0.620762
v 0.130098 0.034918 -0.418198
v 0.145645 0.109271 -0.118968
v 0.360004 0.083011 0.101643
v 0.647607 -0.028481 0.114403
v 0.839980 -0.159892 -0.088161
v 1.554361 1.592388 -0.879198
v 1.340002 1.618649 -1.099809
v 1.052399 1.730140 -1.112569
v 0.860026 1.861552 -0.910005
v 0.875573 1.935904 -0.610775
v 1.089932 1.909644 -0.390164
v 1.377535 1.798152 -0.377403
v 1.569908 1.666741 -0.579968
v 1.479944 1.708648 -0.857041
v 1.329087 1.727130 -1.012298
v 1.126684 1.805592 -1.021279
v 0.991300 1.898075 -0.878722
v 1.002241 1.950401 -0.668137
v 1.153098 1.931920 -0.512880
v 1.355501 1.853457 -0.503899
v 1.490885 1.760975 -0.646456
v 0.837780 0.243413 -0.437483
v 0.716685 0.258248 -0.562110
v 0.554214 0.321231 -0.569319
v 0.445539 0.395468 -0.454887
v 0.454321 0.437471 -0.285847
v 0.575417 0.422636 -0.161220
v 0.737888 0.359653 -0.154011
v 0.846563 0.285416 -0.268443
v 1.232106 0.657458 -0.650183
v 0.990772 0.687023 -0.898555
v 0.666978 0.812544 -0.912922
v 0.450397 0.960492 -0.684867
v 0.467900 1.044202 -0.347983
v 0.709234 1.014636 -0.099611
v 1.033028 0.889115 -0.085244
v 1.249609 0.741167 -0.313299
v -0.353798 -0.036608 0.198267
v -0.451233 -0.113701 0.374299
v -0.388389 -0.160794 0.574941
v -0.202080 -0.150299 0.682659
v -0.001444 -0.088366 0.634353
v 0.095990 -0.011272 0.458321
v 0.033147 0.035820 0.257679
v -0.153162 0.025326 0.149961
v -0.731750 1.575157 0.694942
v -0.829184 1.498064 0.870974
v -0.766340 1.450972 1.071616
v -0.580031 1.461466 1.179334
v -0.379395 1.523400 1.131028
v -0.281961 1.600493 0.954996
v -0.344805 1.647586 0.754354
v -0.531113 1.637091 0.646636
v -0.693086 1.625179 0.777312
v -0.761656 1.570924 0.901196
v -0.717430 1.537782 1.042400
v -0.586313 1.545168 1.118207
v -0.445114 1.588755 1.084212
v -0.376543 1.643010 0.960328
v -0.420770 1.676151 0.819124
v -0.551887 1.668766 0.743316
v -0.360517 0.307665 0.402693
v -0.415559 0.264113 0.502137
v -0.380058 0.237510 0.615483
v -0.274809 0.243439 0.676334
v -0.161466 0.278426 0.649046
v -0.106424 0.321977 0.549602
v -0.141926 0.348581 0.436256
v -0.247174 0.342652 0.375404
v -0.564944 0.772531 0.419166
v -0.674639 0.685737 0.617350
v -0.603887 0.632718 0.843240
v -0.394134 0.644533 0.964513
v -0.168250 0.714261 0.910129
v -0.058555 0.801055 0.711945
v -0.129306 0.854074 0.486055
v -0.339060 0.842259 0.364782
vt 0.609685 0.225559
vt 0.644861 0.225559
vt 0.644861 0.437143
vt 0.609685 0.437143
vt 0.680037 0.225559
vt 0.680037 0.437143
vt 0.715213 0.225559
vt 0.715213 0.437143
vt 0.750388 0.225559
vt 0.750388 0.437143
vt 0.785564 0.225559
vt 0.785564 0.437143
vt 0.820740 0.225559
vt 0.820740 0.437143
vt 0.855916 0.225559
vt 0.855916 0.437143
vt 0.891091 0.225559
vt 0.891091 0.437143
vt 0.367894 0.723274
vt 0.342161 0.715830
vt 0.321356 0.699724
vt 0.332429 0.675212
vt 0.345273 0.652393
vt 0.371171 0.659157
vt 0.391715 0.675671
vt 0.380700 0.700311
vt 0.436911 0.725891
vt 0.385796 0.771736
vt 0.371520 0.748043
vt 0.410054 0.719100
vt 0.317613 0.768159
vt 0.324431 0.741323
vt 0.272019 0.716882
vt 0.295754 0.702616
vt 0.275459 0.649147
vt 0.302313 0.655955
vt 0.326526 0.603345
vt 0.340787 0.627050
vt 0.394706 0.606880
vt 0.387904 0.633714
vt 0.440342 0.658119
vt 0.416619 0.672399
vt 0.609685 0.013976
vt 0.644861 0.013976
vt 0.680037 0.013976
vt 0.715213 0.013976
vt 0.750388 0.013976
vt 0.785564 0.013976
vt 0.820740 0.013976
vt 0.855916 0.013976
vt 0.891091 0.013976
vt 0.609685 0.225559
vt 0.644861 0.225559
vt 0.644861 0.437143
vt 0.609685 0.437143
vt 0.680037 0.225559
vt 0.680037 0.437143
vt 0.715213 0.225559
vt 0.715213 0.437143
vt 0.750388 0.225559
vt 0.750388 0.437143
vt 0.785564 0.225559
vt 0.785564 0.437143
vt 0.820740 0.225559
vt 0.820740 0.437143
vt 0.855916 0.225559
vt 0.855916 0.437143
vt 0.891091 0.225559
vt 0.891091 0.437143
vt 0.369828 0.717199
vt 0.345372 0.717617
vt 0.326929 0.701349
vt 0.327130 0.676928
vt 0.342794 0.657958
vt 0.367250 0.657542
vt 0.385694 0.673810
vt 0.385493 0.698231
vt 0.407764 0.760451
vt 0.341108 0.775449
vt 0.345390 0.749390
vt 0.392374 0.738980
vt 0.283430 0.738960
vt 0.304896 0.723567
vt 0.268426 0.672328
vt 0.294489 0.676602
vt 0.304856 0.614712
vt 0.320246 0.636183
vt 0.371512 0.599713
vt 0.367231 0.625773
vt 0.429191 0.636202
vt 0.407725 0.651595
vt 0.444195 0.702835
vt 0.418132 0.698561
vt 0.609685 0.013976
vt 0.644861 0.013976
vt 0.680037 0.013976
vt 0.715213 0.013976
vt 0.750388 0.013976
vt 0.785564 0.013976
vt 0.820740 0.013976
vt 0.855916 0.013976
vt 0.891091 0.013976
vt 0.609685 0.225559
vt 0.644861 0.225559
vt 0.644861 0.437143
vt 0.609685 0.437143
vt 0.680037 0.225559
vt 0.680037 0.437143
vt 0.715213 0.225559
vt 0.715213 0.437143
vt 0.750388 0.225559
vt 0.750388 0.437143
vt 0.785564 0.225559
vt 0.785564 0.437143
vt 0.820740 0.225559
vt 0.820740 0.437143
vt 0.855916 0.225559
vt 0.855916 0.437143
vt 0.891091 0.225559
vt 0.891091 0.437143
vt 0.366915 0.721837
vt 0.341976 0.714845
vt 0.322328 0.698937
vt 0.333068 0.675210
vt 0.346040 0.653676
vt 0.371094 0.660167
vt 0.390551 0.676375
vt 0.379864 0.700198
vt 0.437211 0.725314
vt 0.386429 0.771529
vt 0.373723 0.748989
vt 0.412279 0.718230
vt 0.318251 0.768439
vt 0.325373 0.743534
vt 0.272295 0.717412
vt 0.294874 0.704729
vt 0.275262 0.649760
vt 0.300190 0.656858
vt 0.326010 0.603589
vt 0.338703 0.626137
vt 0.394182 0.606645
vt 0.387074 0.631551
vt 0.440168 0.657637
vt 0.417597 0.670332
vt 0.609685 0.013976
vt 0.644861 0.013976
vt 0.680037 0.013976
vt 0.715213 0.013976
vt 0.750388 0.013976
vt 0.785564 0.013976
vt 0.820740 0.013976
vt 0.855916 0.013976
vt 0.891091 0.013976
vt 0.609685 0.225559
vt 0.644861 0.225559
vt 0.644861 0.437143
vt 0.609685 0.437143
vt 0.680037 0.225559
vt 0.680037 0.437143
vt 0.715213 0.225559
vt 0.715213 0.437143
vt 0.750388 0.225559
vt 0.750388 0.437143
vt 0.785564 0.225559
vt 0.785564 0.437143
vt 0.820740 0.225559
vt 0.820740 0.437143
vt 0.855916 0.225559
vt 0.855916 0.437143
vt 0.891091 0.225559
vt 0.891091 0.437143
vt 0.366915 0.721837
vt 0.341976 0.714845
vt 0.322328 0.698937
vt 0.333068 0.675210
vt 0.346040 0.653676
vt 0.371094 0.660167
vt 0.390551 0.676375
vt 0.379864 0.700198
vt 0.437211 0.725314
vt 0.386429 0.771529
vt 0.373723 0.748989
vt 0.412279 0.718230
vt 0.318251 0.768439
vt 0.325373 0.743534
vt 0.272295 0.717412
vt 0.294874 0.704729
vt 0.275262 0.649760
vt 0.300190 0.656858
vt 0.326010 0.603589
vt 0.338703 0.626137
vt 0.394182 0.606645
vt 0.387074 0.631551
vt 0.440168 0.657637
vt 0.417597 0.670332
vt 0.609685 0.013976
vt 0.644861 0.013976
vt 0.680037 0.013976
vt 0.715213 0.013976
vt 0.750388 0.013976
vt 0.785564 0.013976
vt 0.820740 0.013976
vt 0.855916 0.013976
vt 0.891091 0.013976
vt 0.609685 0.225559
vt 0.644861 0.225559
vt 0.644861 0.437143
vt 0.609685 0.437143
vt 0.680037 0.225559
vt 0.680037 0.437143
vt 0.715213 0.225559
vt 0.715213 0.437143
vt 0.750388 0.225559
vt 0.750388 0.437143
vt 0.785564 0.225559
vt 0.785564 0.437143
vt 0.820740 0.225559
vt 0.820740 0.437143
vt 0.855916 0.225559
vt 0.855916 0.437143
vt 0.891091 0.225559
vt 0.891091 0.437143
vt 0.367894 0.723274
vt 0.342161 0.715830
vt 0.321356 0.699724
vt 0.332429 0.675212
vt 0.345273 0.652393
vt 0.371171 0.659157
vt 0.391715 0.675671
vt 0.380700 0.700311
vt 0.436911 0.725891
vt 0.385796 0.771736
vt 0.371520 0.748043
vt 0.410054 0.719100
vt 0.317613 0.768159
vt 0.324431 0.741323
vt 0.272019 0.716882
vt 0.295754 0.702616
vt 0.275458 0.649147
vt 0.302313 0.655955
vt 0.326525 0.603345
vt 0.340787 0.627050
vt 0.394706 0.606880
vt 0.387904 0.633714
vt 0.440342 0.658119
vt 0.416619 0.672399
vt 0.609685 0.013976
vt 0.644861 0.013976
vt 0.680037 0.013976
vt 0.715213 0.013976
vt 0.750388 0.013976
vt 0.785564 0.013976
vt 0.820740 0.013976
vt 0.855916 0.013976
vt 0.891091 0.013976
vn 0.713720 -0.027798 -0.699879
vn 0.041277 -0.287793 -0.956803
vn 0.016995 -0.196321 -0.980392
vn 0.686239 0.062437 -0.724691
vn -0.655346 -0.379203 -0.653244
vn -0.676314 -0.287296 -0.678277
vn -0.968075 -0.248481 0.032976
vn -0.987556 -0.157196 0.004679
vn -0.713720 0.027798 0.699880
vn -0.734411 0.117769 0.668410
vn -0.041277 0.287793 0.956803
vn -0.065166 0.376528 0.924111
vn 0.655345 0.379203 0.653244
vn 0.628142 0.467503 0.621996
vn 0.968075 0.248481 -0.032977
vn 0.939385 0.337402 -0.060961
vn -0.755218 0.314096 0.575317
vn -0.116130 0.561195 0.819497
vn 0.545939 0.648071 0.530995
vn 0.843157 0.523832 -0.121188
vn 0.601418 0.261258 -0.755011
vn -0.037670 0.014158 -0.999190
vn -0.699739 -0.072717 -0.710688
vn -0.996957 0.051521 -0.058506
vn -0.173979 0.571378 -0.802034
vn 0.226641 0.726275 -0.648967
vn -0.589004 0.516919 -0.621183
vn -0.775318 0.594800 -0.212356
vn -0.623781 0.759398 0.184962
vn -0.223162 0.914295 0.338028
vn 0.191863 0.968754 0.157179
vn 0.378178 0.890873 -0.251648
vn -0.720301 0.053435 0.691600
vn -0.048117 0.313330 0.948425
vn 0.648238 0.404705 0.644982
vn 0.960847 0.274033 -0.040974
vn 0.706590 -0.002140 -0.707620
vn 0.034405 -0.262035 -0.964445
vn -0.661949 -0.353410 -0.661003
vn -0.974559 -0.222738 0.024954
vn 0.723247 -0.065657 -0.687461
vn 0.051368 -0.325434 -0.944169
vn -0.644669 -0.416767 -0.640864
vn -0.957137 -0.286154 0.044780
vn -0.702994 -0.010107 0.711124
vn -0.031116 0.249670 0.967831
vn 0.664922 0.341003 0.664527
vn 0.977389 0.210390 -0.021118
vn 0.933711 -0.184306 -0.306945
vn 0.482727 0.063609 -0.873458
vn 0.504782 0.152903 -0.849598
vn 0.953724 -0.093889 -0.285650
vn -0.251010 0.274347 -0.928293
vn -0.225632 0.362686 -0.904184
vn -0.837685 0.324460 -0.439328
vn -0.809650 0.412573 -0.417433
vn -0.933633 0.184593 0.307009
vn -0.905164 0.273339 0.325523
vn -0.482649 -0.063322 0.873522
vn -0.456222 0.026546 0.889470
vn 0.251088 -0.274060 0.928357
vn 0.274192 -0.183237 0.944057
vn 0.837763 -0.324173 0.439391
vn 0.858210 -0.233123 0.457306
vn -0.763575 0.533328 0.364027
vn -0.347294 0.304490 0.886946
vn 0.329980 0.109969 0.937561
vn 0.871509 0.063712 0.486223
vn 0.960074 0.192816 -0.202682
vn 0.543794 0.421654 -0.725601
vn -0.133481 0.616175 -0.776216
vn -0.675010 0.662432 -0.324877
vn 0.495620 0.789354 -0.362327
vn 0.768833 0.639164 -0.019125
vn 0.051111 0.917023 -0.395547
vn -0.304306 0.947382 -0.099325
vn -0.362433 0.862648 0.352818
vn -0.089220 0.712457 0.696020
vn 0.355289 0.584789 0.729240
vn 0.710706 0.554431 0.433017
vn -0.924056 0.217710 0.314201
vn -0.473354 -0.030050 0.880360
vn 0.259924 -0.240656 0.935160
vn 0.846232 -0.290737 0.446501
vn 0.942120 -0.150958 -0.299368
vn 0.491418 0.096802 -0.865527
vn -0.241860 0.307409 -0.920328
vn -0.828169 0.357490 -0.431668
vn 0.915152 -0.245243 -0.319925
vn 0.465117 0.002151 -0.885247
vn -0.267077 0.212446 -0.939966
vn -0.852518 0.262453 -0.452030
vn -0.948265 0.122880 0.292737
vn -0.498229 -0.124513 0.858059
vn 0.233965 -0.334808 0.912778
vn 0.819406 -0.384816 0.424841
vn 0.706307 -0.042761 -0.706613
vn 0.000000 -0.107748 -0.994178
vn -0.005587 0.009675 -0.999938
vn 0.695828 0.074212 -0.714364
vn -0.706307 -0.109617 -0.699367
vn -0.707002 0.007818 -0.707168
vn -0.998869 -0.047275 0.005124
vn -0.997537 0.069729 -0.007557
vn -0.706307 0.042761 0.706613
vn -0.707002 0.159141 0.689074
vn -0.000000 0.107748 0.994178
vn -0.005587 0.223678 0.974647
vn 0.706307 0.109617 0.699367
vn 0.695828 0.225535 0.681878
vn 0.998869 0.047275 -0.005124
vn 0.986363 0.163624 -0.017733
vn -0.673604 0.407869 0.616360
vn -0.017629 0.468225 0.883433
vn 0.638347 0.469962 0.609630
vn 0.910061 0.412062 -0.044659
vn 0.638347 0.328442 -0.696160
vn -0.017629 0.268086 -0.963234
vn -0.673605 0.266349 -0.689431
vn -0.945319 0.324249 -0.035142
vn -0.040643 0.792846 -0.608065
vn 0.326000 0.826581 -0.458790
vn -0.407285 0.791875 -0.455030
vn -0.559154 0.824237 -0.089329
vn -0.407286 0.870974 0.274814
vn -0.040643 0.904709 0.424088
vn 0.326000 0.905679 0.271051
vn 0.477868 0.873318 -0.094648
vn -0.707512 0.076363 0.702563
vn -0.001610 0.141313 0.989964
vn 0.704292 0.143181 0.695322
vn 0.996686 0.080874 -0.008765
vn 0.704292 -0.009109 -0.709852
vn -0.001610 -0.074059 -0.997253
vn -0.707512 -0.075928 -0.702611
vn -0.999906 -0.013621 0.001476
vn 0.707801 -0.092364 -0.700347
vn 0.002378 -0.157270 -0.987553
vn -0.703045 -0.159137 -0.693111
vn -0.995241 -0.096872 0.010499
vn -0.703046 -0.006950 0.711111
vn 0.002378 0.057956 0.998316
vn 0.707801 0.059823 0.703874
vn 0.999997 -0.002441 0.000265
vn 0.841411 -0.425815 -0.332731
vn 0.309981 -0.360711 -0.879659
vn 0.350130 -0.252366 -0.902064
vn 0.877879 -0.317020 -0.358924
vn -0.403031 -0.084307 -0.911295
vn -0.357943 0.022123 -0.933481
vn -0.879953 0.241483 -0.409107
vn -0.831562 0.345656 -0.434772
vn -0.841411 0.425815 0.332731
vn -0.793287 0.528712 0.301928
vn -0.309981 0.360711 0.879659
vn -0.265538 0.464059 0.845068
vn 0.403031 0.084307 0.911295
vn 0.442536 0.189569 0.876485
vn 0.879953 -0.241483 0.409107
vn 0.916155 -0.133964 0.377775
vn -0.647992 0.729453 0.219098
vn -0.154432 0.668988 0.727053
vn 0.507771 0.412281 0.756434
vn 0.950708 0.109707 0.290032
vn 0.914912 -0.061490 -0.398942
vn 0.421352 -0.001025 -0.906897
vn -0.240851 0.255682 -0.936278
vn -0.683788 0.558257 -0.469876
vn 0.468600 0.582746 -0.663944
vn 0.744466 0.548949 -0.380034
vn 0.098476 0.726226 -0.680366
vn -0.149093 0.895343 -0.419681
vn -0.129086 0.991030 -0.034593
vn 0.146778 0.957234 0.249317
vn 0.516903 0.813753 0.265739
vn 0.764473 0.644636 0.005053
vn -0.828738 0.456076 0.324327
vn -0.297613 0.391009 0.870941
vn 0.414990 0.114764 0.902559
vn 0.891639 -0.210839 0.400659
vn 0.853118 -0.395065 -0.340753
vn 0.321994 -0.329998 -0.887368
vn -0.390610 -0.053753 -0.918986
vn -0.867259 0.271850 -0.417085
vn 0.822357 -0.470330 -0.320186
vn 0.291592 -0.405307 -0.866430
vn -0.420528 -0.129249 -0.898026
vn -0.896854 0.196133 -0.396466
vn -0.858359 0.380235 0.344443
vn -0.327595 0.315212 0.890687
vn 0.384526 0.039154 0.922284
vn 0.860851 -0.286228 0.420724
vn -0.625817 0.091926 -0.774534
vn -0.971923 -0.181925 -0.149231
vn -0.988603 -0.090213 -0.120527
vn -0.644143 0.182335 -0.742855
vn -0.748689 -0.349206 0.563489
vn -0.766431 -0.256699 0.588804
vn -0.086884 -0.311928 0.946125
vn -0.107774 -0.219597 0.969620
vn 0.625817 -0.091926 0.774534
vn 0.601537 -0.000642 0.798845
vn 0.971923 0.181925 0.149231
vn 0.945997 0.271906 0.176516
vn 0.748689 0.349206 -0.563489
vn 0.723825 0.438392 -0.532814
vn 0.086883 0.311928 -0.946125
vn 0.065167 0.401291 -0.913630
vn 0.526760 0.202683 0.825496
vn 0.855698 0.462950 0.231210
vn 0.643537 0.621935 -0.446158
vn 0.014559 0.586505 -0.809815
vn -0.662790 0.377416 -0.646735
vn -0.991728 0.117149 -0.052449
vn -0.779568 -0.041835 0.624919
vn -0.150589 -0.006406 0.988576
vn -0.754670 0.640578 0.141890
vn -0.548471 0.803731 -0.230645
vn -0.621674 0.540918 0.566507
vn -0.227391 0.563128 0.794469
vn 0.197213 0.694198 0.692240
vn 0.403412 0.857349 0.319705
vn 0.270416 0.957010 -0.104910
vn -0.123866 0.934801 -0.332872
vn 0.619513 -0.066032 0.782204
vn 0.965485 0.207714 0.157143
vn 0.742337 0.374931 -0.555304
vn 0.080786 0.337667 -0.937793
vn -0.631640 0.117750 -0.766268
vn -0.977613 -0.155996 -0.141205
vn -0.754465 -0.323213 0.571241
vn -0.092914 -0.285949 0.953730
vn -0.616336 0.053654 -0.785654
vn -0.962151 -0.219966 -0.160876
vn -0.739104 -0.387108 0.551246
vn -0.077854 -0.349860 0.933561
vn 0.634249 -0.130043 0.762114
vn 0.980063 0.143578 0.137336
vn 0.757017 0.310719 -0.574786
vn 0.095767 0.273472 -0.957101
s 1
g TubeCoral_Geo
usemtl initialShadingGroup
f 33/1/1 34/2/2 10/3/3 9/4/4
f 34/2/2 35/5/5 11/6/6 10/3/3
f 35/5/5 36/7/7 12/8/8 11/6/6
f 36/7/7 37/9/9 13/10/10 12/8/8
f 37/9/9 38/11/11 14/12/12 13/10/10
f 38/11/11 39/13/13 15/14/14 14/12/12
f 39/13/13 40/15/15 16/16/16 15/14/14
f 40/15/15 33/17/1 9/18/4 16/16/16
s 2
f 25/19/17 26/20/18 27/21/19 28/22/20 29/23/21 30/24/22 31/25/23 32/26/24
s 1
f 9/27/4 10/28/3 18/29/25 17/30/26
f 10/28/3 11/31/6 19/32/27 18/29/25
f 11/31/6 12/33/8 20/34/28 19/32/27
f 12/33/8 13/35/10 21/36/29 20/34/28
f 13/35/10 14/37/12 22/38/30 21/36/29
f 14/37/12 15/39/14 23/40/31 22/38/30
f 15/39/14 16/41/16 24/42/32 23/40/31
f 16/41/16 9/27/4 17/30/26 24/42/32
s 2
f 17/30/33 18/29/34 26/20/18 25/19/17
f 18/29/34 19/32/35 27/21/19 26/20/18
f 19/32/35 20/34/36 28/22/20 27/21/19
f 20/34/36 21/36/37 29/23/21 28/22/20
f 21/36/37 22/38/38 30/24/22 29/23/21
f 22/38/38 23/40/39 31/25/23 30/24/22
f 23/40/39 24/42/40 32/26/24 31/25/23
f 24/42/40 17/30/33 25/19/17 32/26/24
s 1
f 1/43/41 2/44/42 34/2/2 33/1/1
f 2/44/42 3/45/43 35/5/5 34/2/2
f 3/45/43 4/46/44 36/7/7 35/5/5
f 4/46/44 5/47/45 37/9/9 36/7/7
f 5/47/45 6/48/46 38/11/11 37/9/9
f 6/48/46 7/49/47 39/13/13 38/11/11
f 7/49/47 8/50/48 40/15/15 39/13/13
f 8/50/48 1/51/41 33/17/1 40/15/15
s 3
f 73/52/49 74/53/50 50/54/51 49/55/52
f 74/53/50 75/56/53 51/57/54 50/54/51
f 75/56/53 76/58/55 52/59/56 51/57/54
f 76/58/55 77/60/57 53/61/58 52/59/56
f 77/60/57 78/62/59 54/63/60 53/61/58
f 78/62/59 79/64/61 55/65/62 54/63/60
f 79/64/61 80/66/63 56/67/64 55/65/62
f 80/66/63 73/68/49 49/69/52 56/67/64
s 4
f 65/70/65 66/71/66 67/72/67 68/73/68 69/74/69 70/75/70 71/76/71 72/77/72
s 3
f 49/78/52 50/79/51 58/80/73 57/81/74
f 50/79/51 51/82/54 59/83/75 58/80/73
f 51/82/54 52/84/56 60/85/76 59/83/75
f 52/84/56 53/86/58 61/87/77 60/85/76
f 53/86/58 54/88/60 62/89/78 61/87/77
f 54/88/60 55/90/62 63/91/79 62/89/78
f 55/90/62 56/92/64 64/93/80 63/91/79
f 56/92/64 49/78/52 57/81/74 64/93/80
s 4
f 57/81/81 58/80/82 66/71/66 65/70/65
f 58/80/82 59/83/83 67/72/67 66/71/66
f 59/83/83 60/85/84 68/73/68 67/72/67
f 60/85/84 61/87/85 69/74/69 68/73/68
f 61/87/85 62/89/86 70/75/70 69/74/69
f 62/89/86 63/91/87 71/76/71 70/75/70
f 63/91/87 64/93/88 72/77/72 71/76/71
f 64/93/88 57/81/81 65/70/65 72/77/72
s 3
f 41/94/89 42/95/90 74/53/50 73/52/49
f 42/95/90 43/96/91 75/56/53 74/53/50
f 43/96/91 44/97/92 76/58/55 75/56/53
f 44/97/92 45/98/93 77/60/57 76/58/55
f 45/98/93 46/99/94 78/62/59 77/60/57
f 46/99/94 47/100/95 79/64/61 78/62/59
f 47/100/95 48/101/96 80/66/63 79/64/61
f 48/101/96 41/102/89 73/68/49 80/66/63
s 5
f 113/103/97 114/104/98 90/105/99 89/106/100
f 114/104/98 115/107/101 91/108/102 90/105/99
f 115/107/101 116/109/103 92/110/104 91/108/102
f 116/109/103 117/111/105 93/112/106 92/110/104
f 117/111/105 118/113/107 94/114/108 93/112/106
f 118/113/107 119/115/109 95/116/110 94/114/108
f 119/115/109 120/117/111 96/118/112 95/116/110
f 120/117/111 113/119/97 89/120/100 96/118/112
s 6
f 105/121/113 106/122/114 107/123/115 108/124/116 109/125/117 110/126/118 111/127/119 112/128/120
s 5
f 89/129/100 90/130/99 98/131/121 97/132/122
f 90/130/99 91/133/102 99/134/123 98/131/121
f 91/133/102 92/135/104 100/136/124 99/134/123
f 92/135/104 93/137/106 101/138/125 100/136/124
f 93/137/106 94/139/108 102/140/126 101/138/125
f 94/139/108 95/141/110 103/142/127 102/140/126
f 95/141/110 96/143/112 104/144/128 103/142/127
f 96/143/112 89/129/100 97/132/122 104/144/128
s 6
f 97/132/129 98/131/130 106/122/114 105/121/113
f 98/131/130 99/134/131 107/123/115 106/122/114
f 99/134/131 100/136/132 108/124/116 107/123/115
f 100/136/132 101/138/133 109/125/117 108/124/116
f 101/138/133 102/140/134 110/126/118 109/125/117
f 102/140/134 103/142/135 111/127/119 110/126/118
f 103/142/135 104/144/136 112/128/120 111/127/119
f 104/144/136 97/132/129 105/121/113 112/128/120
s 5
f 81/145/137 82/146/138 114/104/98 113/103/97
f 82/146/138 83/147/139 115/107/101 114/104/98
f 83/147/139 84/148/140 116/109/103 115/107/101
f 84/148/140 85/149/141 117/111/105 116/109/103
f 85/149/141 86/150/142 118/113/107 117/111/105
f 86/150/142 87/151/143 119/115/109 118/113/107
f 87/151/143 88/152/144 120/117/111 119/115/109
f 88/152/144 81/153/137 113/119/97 120/117/111
s 7
f 153/154/145 154/155/146 130/156/147 129/157/148
f 154/155/146 155/158/149 131/159/150 130/156/147
f 155/158/149 156/160/151 132/161/152 131/159/150
f 156/160/151 157/162/153 133/163/154 132/161/152
f 157/162/153 158/164/155 134/165/156 133/163/154
f 158/164/155 159/166/157 135/167/158 134/165/156
f 159/166/157 160/168/159 136/169/160 135/167/158
f 160/168/159 153/170/145 129/171/148 136/169/160
s 8
f 145/172/161 146/173/162 147/174/163 148/175/164 149/176/165 150/177/166 151/178/167 152/179/168
s 7
f 129/180/148 130/181/147 138/182/169 137/183/170
f 130/181/147 131/184/150 139/185/171 138/182/169
f 131/184/150 132/186/152 140/187/172 139/185/171
f 132/186/152 133/188/154 141/189/173 140/187/172
f 133/188/154 134/190/156 142/191/174 141/189/173
f 134/190/156 135/192/158 143/193/175 142/191/174
f 135/192/158 136/194/160 144/195/176 143/193/175
f 136/194/160 129/180/148 137/183/170 144/195/176
s 8
f 137/183/177 138/182/178 146/173/162 145/172/161
f 138/182/178 139/185/179 147/174/163 146/173/162
f 139/185/179 140/187/180 148/175/164 147/174/163
f 140/187/180 141/189/181 149/176/165 148/175/164
f 141/189/181 142/191/182 150/177/166 149/176/165
f 142/191/182 143/193/183 151/178/167 150/177/166
f 143/193/183 144/195/184 152/179/168 151/178/167
f 144/195/184 137/183/177 145/172/161 152/179/168
s 7
f 121/196/185 122/197/186 154/155/146 153/154/145
f 122/197/186 123/198/187 155/158/149 154/155/146
f 123/198/187 124/199/188 156/160/151 155/158/149
f 124/199/188 125/200/189 157/162/153 156/160/151
f 125/200/189 126/201/190 158/164/155 157/162/153
f 126/201/190 127/202/191 159/166/157 158/164/155
f 127/202/191 128/203/192 160/168/159 159/166/157
f 128/203/192 121/204/185 153/170/145 160/168/159
s 9
f 193/205/193 194/206/194 170/207/195 169/208/196
f 194/206/194 195/209/197 171/210/198 170/207/195
f 195/209/197 196/211/199 172/212/200 171/210/198
f 196/211/199 197/213/201 173/214/202 172/212/200
f 197/213/201 198/215/203 174/216/204 173/214/202
f 198/215/203 199/217/205 175/218/206 174/216/204
f 199/217/205 200/219/207 176/220/208 175/218/206
f 200/219/207 193/221/193 169/222/196 176/220/208
s 10
f 185/223/209 186/224/210 187/225/211 188/226/212 189/227/213 190/228/214 191/229/215 192/230/216
s 9
f 169/231/196 170/232/195 178/233/217 177/234/218
f 170/232/195 171/235/198 179/236/219 178/233/217
f 171/235/198 172/237/200 180/238/220 179/236/219
f 172/237/200 173/239/202 181/240/221 180/238/220
f 173/239/202 174/241/204 182/242/222 181/240/221
f 174/241/204 175/243/206 183/244/223 182/242/222
f 175/243/206 176/245/208 184/246/224 183/244/223
f 176/245/208 169/231/196 177/234/218 184/246/224
s 10
f 177/234/225 178/233/226 186/224/210 185/223/209
f 178/233/226 179/236/227 187/225/211 186/224/210
f 179/236/227 180/238/228 188/226/212 187/225/211
f 180/238/228 181/240/229 189/227/213 188/226/212
f 181/240/229 182/242/230 190/228/214 189/227/213
f 182/242/230 183/244/231 191/229/215 190/228/214
f 183/244/231 184/246/232 192/230/216 191/229/215
f 184/246/232 177/234/225 185/223/209 192/230/216
s 9
f 161/247/233 162/248/234 194/206/194 193/205/193
f 162/248/234 163/249/235 195/209/197 194/206/194
f 163/249/235 164/250/236 196/211/199 195/209/197
f 164/250/236 165/251/237 197/213/201 196/211/199
f 165/251/237 166/252/238 198/215/203 197/213/201
f 166/252/238 167/253/239 199/217/205 198/215/203
f 167/253/239 168/254/240 200/219/207 199/217/205
f 168/254/240 161/255/233 193/221/193 200/219/207
